<?xml version="1.0" encoding="UTF-8" standalone="no"?>
<!-- Generator: Adobe Illustrator 15.0.0, SVG Export Plug-In . SVG Version: 6.00 Build 0)  -->

<svg
   xmlns:dc="http://purl.org/dc/elements/1.1/"
   xmlns:cc="http://creativecommons.org/ns#"
   xmlns:rdf="http://www.w3.org/1999/02/22-rdf-syntax-ns#"
   xmlns:svg="http://www.w3.org/2000/svg"
   xmlns="http://www.w3.org/2000/svg"
   xmlns:sodipodi="http://sodipodi.sourceforge.net/DTD/sodipodi-0.dtd"
   xmlns:inkscape="http://www.inkscape.org/namespaces/inkscape"
   version="1.1"
   id="Vrstva_1"
   x="62px"
   y="112px"
   width="945"
   height="502"
   viewBox="62 112 945 502"
   enable-background="new 0 0 595.28 841.89"
   xml:space="preserve"
   inkscape:version="0.47 r22583"
   sodipodi:docname="logoWhite.svg"><metadata
   id="metadata2383"><rdf:RDF><cc:Work
       rdf:about=""><dc:format>image/svg+xml</dc:format><dc:type
         rdf:resource="http://purl.org/dc/dcmitype/StillImage" /><dc:title></dc:title></cc:Work></rdf:RDF></metadata><defs
   id="defs2381"><inkscape:perspective
     sodipodi:type="inkscape:persp3d"
     inkscape:vp_x="0 : 420.94501 : 1"
     inkscape:vp_y="0 : 1000 : 0"
     inkscape:vp_z="595.28003 : 420.94501 : 1"
     inkscape:persp3d-origin="297.64001 : 280.63 : 1"
     id="perspective2385" /></defs><sodipodi:namedview
   pagecolor="#ffffff"
   bordercolor="#666666"
   borderopacity="1"
   objecttolerance="10"
   gridtolerance="10"
   guidetolerance="10"
   inkscape:pageopacity="0"
   inkscape:pageshadow="2"
   inkscape:window-width="1171"
   inkscape:window-height="935"
   id="namedview2379"
   showgrid="false"
   inkscape:zoom="0.81958449"
   inkscape:cx="493.30264"
   inkscape:cy="420.94501"
   inkscape:window-x="0"
   inkscape:window-y="0"
   inkscape:window-maximized="0"
   inkscape:current-layer="Vrstva_1"
   units="mm" />














<g
   id="g5191"
   transform="matrix(6.0014469,0,0,6.0014469,-2043.9656,141.05372)"><g
     transform="translate(0,-97.795505)"
     id="g1589">
	<g
   id="g1591">
		<circle
   d="m 388.484,150.229 c 0,1.18631 -0.96169,2.148 -2.148,2.148 -1.18631,0 -2.148,-0.96169 -2.148,-2.148 0,-1.1863 0.96169,-2.148 2.148,-2.148 1.18631,0 2.148,0.9617 2.148,2.148 z"
   style="fill:#71226c"
   sodipodi:ry="2.148"
   sodipodi:rx="2.148"
   sodipodi:cy="150.229"
   sodipodi:cx="386.336"
   id="circle1593"
   r="2.148"
   cy="150.229"
   cx="386.336" />
		<g
   id="g1595">
			<g
   id="g1597">
				<circle
   d="m 360.728,142.74699 c 0,2.26824 -1.83876,4.107 -4.107,4.107 -2.26823,0 -4.107,-1.83876 -4.107,-4.107 0,-2.26823 1.83877,-4.107 4.107,-4.107 2.26824,0 4.107,1.83877 4.107,4.107 z"
   style="fill:#71226c"
   sodipodi:ry="4.1069999"
   sodipodi:rx="4.1069999"
   sodipodi:cy="142.74699"
   sodipodi:cx="356.621"
   id="circle1599"
   r="4.1069999"
   cy="142.74699"
   cx="356.621" />
				<circle
   d="m 381.595,163.2 c 0,2.43281 -1.97218,4.405 -4.405,4.405 -2.43281,0 -4.405,-1.97219 -4.405,-4.405 0,-2.43282 1.97219,-4.405 4.405,-4.405 2.43282,0 4.405,1.97218 4.405,4.405 z"
   style="fill:#71226c"
   sodipodi:ry="4.4050002"
   sodipodi:rx="4.4050002"
   sodipodi:cy="163.2"
   sodipodi:cx="377.19"
   id="circle1601"
   r="4.4050002"
   cy="163.2"
   cx="377.19" />
				<circle
   d="m 359.63901,122.37 c 0,1.66625 -1.35076,3.017 -3.017,3.017 -1.66624,0 -3.017,-1.35075 -3.017,-3.017 0,-1.66624 1.35076,-3.017 3.017,-3.017 1.66624,0 3.017,1.35076 3.017,3.017 z"
   style="fill:#71226c"
   sodipodi:ry="3.017"
   sodipodi:rx="3.017"
   sodipodi:cy="122.37"
   sodipodi:cx="356.62201"
   id="circle1603"
   r="3.017"
   cy="122.37"
   cx="356.62201" />
				<circle
   d="m 368.64301,160.19501 c 0,1.94183 -1.57416,3.516 -3.516,3.516 -1.94183,0 -3.516,-1.57417 -3.516,-3.516 0,-1.94184 1.57417,-3.516 3.516,-3.516 1.94184,0 3.516,1.57416 3.516,3.516 z"
   style="fill:#71226c"
   sodipodi:ry="3.516"
   sodipodi:rx="3.516"
   sodipodi:cy="160.19501"
   sodipodi:cx="365.12701"
   id="circle1605"
   r="3.516"
   cy="160.19501"
   cx="365.12701" />
				<circle
   d="m 384.50401,171.03799 c 0,1.94184 -1.57417,3.516 -3.516,3.516 -1.94184,0 -3.516,-1.57416 -3.516,-3.516 0,-1.94183 1.57416,-3.516 3.516,-3.516 1.94183,0 3.516,1.57417 3.516,3.516 z"
   style="fill:#71226c"
   sodipodi:ry="3.516"
   sodipodi:rx="3.516"
   sodipodi:cy="171.03799"
   sodipodi:cx="380.98801"
   id="circle1607"
   r="3.516"
   cy="171.03799"
   cx="380.98801" />
				<circle
   d="m 409.52799,170.62199 c 0,1.94184 -1.57416,3.516 -3.516,3.516 -1.94183,0 -3.516,-1.57416 -3.516,-3.516 0,-1.94183 1.57417,-3.516 3.516,-3.516 1.94184,0 3.516,1.57417 3.516,3.516 z"
   style="fill:#71226c"
   sodipodi:ry="3.516"
   sodipodi:rx="3.516"
   sodipodi:cy="170.62199"
   sodipodi:cx="406.01199"
   id="circle1609"
   r="3.516"
   cy="170.62199"
   cx="406.01199" />
				<circle
   d="m 365.538,145.58501 c 0,1.06867 -0.86633,1.935 -1.935,1.935 -1.06867,0 -1.935,-0.86633 -1.935,-1.935 0,-1.06867 0.86633,-1.935 1.935,-1.935 1.06867,0 1.935,0.86633 1.935,1.935 z"
   style="fill:#71226c"
   sodipodi:ry="1.9349999"
   sodipodi:rx="1.9349999"
   sodipodi:cy="145.58501"
   sodipodi:cx="363.603"
   id="circle1611"
   r="1.9349999"
   cy="145.58501"
   cx="363.603" />
				<circle
   d="m 389.99299,166.71001 c 0,1.1609 -0.9411,2.102 -2.102,2.102 -1.1609,0 -2.102,-0.9411 -2.102,-2.102 0,-1.16091 0.9411,-2.102 2.102,-2.102 1.1609,0 2.102,0.94109 2.102,2.102 z"
   style="fill:#71226c"
   sodipodi:ry="2.102"
   sodipodi:rx="2.102"
   sodipodi:cy="166.71001"
   sodipodi:cx="387.89099"
   id="circle1613"
   r="2.102"
   cy="166.71001"
   cx="387.89099" />
				<circle
   d="m 416.809,167.22501 c 0,1.94183 -1.57417,3.516 -3.516,3.516 -1.94183,0 -3.516,-1.57417 -3.516,-3.516 0,-1.94184 1.57417,-3.516 3.516,-3.516 1.94183,0 3.516,1.57416 3.516,3.516 z"
   style="fill:#71226c"
   sodipodi:ry="3.516"
   sodipodi:rx="3.516"
   sodipodi:cy="167.22501"
   sodipodi:cx="413.293"
   id="circle1615"
   r="3.516"
   cy="167.22501"
   cx="413.293" />
				<circle
   d="m 369.76299,152.73 c 0,1.1863 -0.96169,2.148 -2.148,2.148 -1.18631,0 -2.148,-0.9617 -2.148,-2.148 0,-1.18631 0.96169,-2.148 2.148,-2.148 1.18631,0 2.148,0.96169 2.148,2.148 z"
   style="fill:#71226c"
   sodipodi:ry="2.148"
   sodipodi:rx="2.148"
   sodipodi:cy="152.73"
   sodipodi:cx="367.61499"
   id="circle1617"
   r="2.148"
   cy="152.73"
   cx="367.61499" />
				<circle
   d="m 366.476,108.153 c 0,1.18631 -0.96169,2.148 -2.148,2.148 -1.1863,0 -2.148,-0.96169 -2.148,-2.148 0,-1.18631 0.9617,-2.148 2.148,-2.148 1.18631,0 2.148,0.96169 2.148,2.148 z"
   style="fill:#71226c"
   sodipodi:ry="2.148"
   sodipodi:rx="2.148"
   sodipodi:cy="108.153"
   sodipodi:cx="364.328"
   id="circle1619"
   r="2.148"
   cy="108.153"
   cx="364.328" />
				<circle
   d="m 395.33601,173.925 c 0,1.18686 -0.96214,2.149 -2.149,2.149 -1.18686,0 -2.149,-0.96214 -2.149,-2.149 0,-1.18686 0.96214,-2.149 2.149,-2.149 1.18686,0 2.149,0.96214 2.149,2.149 z"
   style="fill:#71226c"
   sodipodi:ry="2.1489999"
   sodipodi:rx="2.1489999"
   sodipodi:cy="173.925"
   sodipodi:cx="393.18701"
   id="circle1621"
   r="2.1489999"
   cy="173.925"
   cx="393.18701" />
				<circle
   d="m 399.09599,174.472 c 0,0.84665 -0.68635,1.533 -1.533,1.533 -0.84665,0 -1.533,-0.68635 -1.533,-1.533 0,-0.84665 0.68635,-1.533 1.533,-1.533 0.84665,0 1.533,0.68635 1.533,1.533 z"
   style="fill:#71226c"
   sodipodi:ry="1.533"
   sodipodi:rx="1.533"
   sodipodi:cy="174.472"
   sodipodi:cx="397.56299"
   id="circle1623"
   r="1.533"
   cy="174.472"
   cx="397.56299" />
				<path
   style="fill:#71226c"
   id="path1625"
   d="m 384.873,165.174 c 0,0.847 -0.686,1.533 -1.531,1.533 -0.85,0 -1.533,-0.687 -1.533,-1.533 0,-0.846 0.684,-1.534 1.533,-1.534 0.846,0 1.531,0.687 1.531,1.534 z" />
				<circle
   d="m 373.387,150.39999 c 0,0.84666 -0.68634,1.533 -1.533,1.533 -0.84665,0 -1.533,-0.68634 -1.533,-1.533 0,-0.84665 0.68635,-1.533 1.533,-1.533 0.84666,0 1.533,0.68635 1.533,1.533 z"
   style="fill:#71226c"
   sodipodi:ry="1.533"
   sodipodi:rx="1.533"
   sodipodi:cy="150.39999"
   sodipodi:cx="371.854"
   id="circle1627"
   r="1.533"
   cy="150.39999"
   cx="371.854" />
				<circle
   d="m 382.68502,157.243 c 0,0.8461 -0.6859,1.532 -1.532,1.532 -0.84611,0 -1.532,-0.6859 -1.532,-1.532 0,-0.8461 0.68589,-1.532 1.532,-1.532 0.8461,0 1.532,0.6859 1.532,1.532 z"
   style="fill:#71226c"
   sodipodi:ry="1.5319999"
   sodipodi:rx="1.5319999"
   sodipodi:cy="157.243"
   sodipodi:cx="381.15302"
   id="circle1629"
   r="1.5319999"
   cy="157.243"
   cx="381.15302" />
				<circle
   d="m 405.61299,163.95599 c 0,0.84666 -0.68635,1.533 -1.533,1.533 -0.84666,0 -1.533,-0.68634 -1.533,-1.533 0,-0.84665 0.68634,-1.533 1.533,-1.533 0.84665,0 1.533,0.68635 1.533,1.533 z"
   style="fill:#71226c"
   sodipodi:ry="1.533"
   sodipodi:rx="1.533"
   sodipodi:cy="163.95599"
   sodipodi:cx="404.07999"
   id="circle1631"
   r="1.533"
   cy="163.95599"
   cx="404.07999" />
				<circle
   d="m 410.85301,161.74899 c 0,0.84666 -0.68635,1.533 -1.533,1.533 -0.84666,0 -1.533,-0.68634 -1.533,-1.533 0,-0.84665 0.68634,-1.533 1.533,-1.533 0.84665,0 1.533,0.68635 1.533,1.533 z"
   style="fill:#71226c"
   sodipodi:ry="1.533"
   sodipodi:rx="1.533"
   sodipodi:cy="161.74899"
   sodipodi:cx="409.32001"
   id="circle1633"
   r="1.533"
   cy="161.74899"
   cx="409.32001" />
				<circle
   d="m 396.05599,161.48199 c 0,0.8461 -0.6859,1.532 -1.532,1.532 -0.8461,0 -1.532,-0.6859 -1.532,-1.532 0,-0.8461 0.6859,-1.532 1.532,-1.532 0.8461,0 1.532,0.6859 1.532,1.532 z"
   style="fill:#71226c"
   sodipodi:ry="1.5319999"
   sodipodi:rx="1.5319999"
   sodipodi:cy="161.48199"
   sodipodi:cx="394.52399"
   id="circle1635"
   r="1.5319999"
   cy="161.48199"
   cx="394.52399" />
				<circle
   d="m 376.87301,151.60699 c 0,0.69533 -0.56367,1.259 -1.259,1.259 -0.69532,0 -1.259,-0.56367 -1.259,-1.259 0,-0.69532 0.56368,-1.259 1.259,-1.259 0.69533,0 1.259,0.56368 1.259,1.259 z"
   style="fill:#71226c"
   sodipodi:ry="1.2589999"
   sodipodi:rx="1.2589999"
   sodipodi:cy="151.60699"
   sodipodi:cx="375.61401"
   id="circle1637"
   r="1.2589999"
   cy="151.60699"
   cx="375.61401" />
				<circle
   d="m 378.99399,156.423 c 0,0.69533 -0.56368,1.259 -1.259,1.259 -0.69533,0 -1.259,-0.56367 -1.259,-1.259 0,-0.69532 0.56367,-1.259 1.259,-1.259 0.69532,0 1.259,0.56368 1.259,1.259 z"
   style="fill:#71226c"
   sodipodi:ry="1.2589999"
   sodipodi:rx="1.2589999"
   sodipodi:cy="156.423"
   sodipodi:cx="377.73499"
   id="circle1639"
   r="1.2589999"
   cy="156.423"
   cx="377.73499" />
				<circle
   d="m 379.95101,150.673 c 0,0.69588 -0.56412,1.26 -1.26,1.26 -0.69588,0 -1.26,-0.56412 -1.26,-1.26 0,-0.69587 0.56412,-1.26 1.26,-1.26 0.69588,0 1.26,0.56413 1.26,1.26 z"
   style="fill:#71226c"
   sodipodi:ry="1.26"
   sodipodi:rx="1.26"
   sodipodi:cy="150.673"
   sodipodi:cx="378.69101"
   id="circle1641"
   r="1.26"
   cy="150.673"
   cx="378.69101" />
				<circle
   d="m 381.83699,147.802 c 0,0.61028 -0.49472,1.105 -1.105,1.105 -0.61027,0 -1.105,-0.49472 -1.105,-1.105 0,-0.61027 0.49473,-1.105 1.105,-1.105 0.61028,0 1.105,0.49473 1.105,1.105 z"
   style="fill:#71226c"
   sodipodi:ry="1.105"
   sodipodi:rx="1.105"
   sodipodi:cy="147.802"
   sodipodi:cx="380.73199"
   id="circle1643"
   r="1.105"
   cy="147.802"
   cx="380.73199" />
				<circle
   d="m 382.03702,144.519 c 0,0.48822 -0.39579,0.884 -0.884,0.884 -0.48822,0 -0.884,-0.39578 -0.884,-0.884 0,-0.48822 0.39578,-0.884 0.884,-0.884 0.48821,0 0.884,0.39578 0.884,0.884 z"
   style="fill:#71226c"
   sodipodi:ry="0.884"
   sodipodi:rx="0.884"
   sodipodi:cy="144.519"
   sodipodi:cx="381.15302"
   id="circle1645"
   r="0.884"
   cy="144.519"
   cx="381.15302" />
				<circle
   d="m 380.78299,142.067 c 0,0.34021 -0.27579,0.616 -0.616,0.616 -0.34021,0 -0.616,-0.27579 -0.616,-0.616 0,-0.34021 0.27579,-0.616 0.616,-0.616 0.34021,0 0.616,0.27579 0.616,0.616 z"
   style="fill:#71226c"
   sodipodi:ry="0.616"
   sodipodi:rx="0.616"
   sodipodi:cy="142.067"
   sodipodi:cx="380.16699"
   id="circle1647"
   r="0.616"
   cy="142.067"
   cx="380.16699" />
				<circle
   d="m 420.75201,158.95599 c 0,0.55726 -0.45174,1.009 -1.009,1.009 -0.55725,0 -1.009,-0.45174 -1.009,-1.009 0,-0.55725 0.45175,-1.009 1.009,-1.009 0.55726,0 1.009,0.45175 1.009,1.009 z"
   style="fill:#71226c"
   sodipodi:ry="1.0089999"
   sodipodi:rx="1.0089999"
   sodipodi:cy="158.95599"
   sodipodi:cx="419.74301"
   id="circle1649"
   r="1.0089999"
   cy="158.95599"
   cx="419.74301" />
				<circle
   d="m 421.93101,163.405 c 0,1.48675 -1.20525,2.692 -2.692,2.692 -1.48675,0 -2.692,-1.20525 -2.692,-2.692 0,-1.48675 1.20525,-2.692 2.692,-2.692 1.48675,0 2.692,1.20525 2.692,2.692 z"
   style="fill:#71226c"
   sodipodi:ry="2.6919999"
   sodipodi:rx="2.6919999"
   sodipodi:cy="163.405"
   sodipodi:cx="419.23901"
   id="circle1651"
   r="2.6919999"
   cy="163.405"
   cx="419.23901" />
				<circle
   d="m 428.24301,156.62601 c 0,1.94238 -1.57461,3.517 -3.517,3.517 -1.94238,0 -3.517,-1.57462 -3.517,-3.517 0,-1.94239 1.57462,-3.517 3.517,-3.517 1.94239,0 3.517,1.57461 3.517,3.517 z"
   style="fill:#71226c"
   sodipodi:ry="3.517"
   sodipodi:rx="3.517"
   sodipodi:cy="156.62601"
   sodipodi:cx="424.72601"
   id="circle1653"
   r="3.517"
   cy="156.62601"
   cx="424.72601" />
				<circle
   d="m 433.32899,144.625 c 0,1.94183 -1.57417,3.516 -3.516,3.516 -1.94183,0 -3.516,-1.57417 -3.516,-3.516 0,-1.94183 1.57417,-3.516 3.516,-3.516 1.94183,0 3.516,1.57417 3.516,3.516 z"
   style="fill:#71226c"
   sodipodi:ry="3.516"
   sodipodi:rx="3.516"
   sodipodi:cy="144.625"
   sodipodi:cx="429.81299"
   id="circle1655"
   r="3.516"
   cy="144.625"
   cx="429.81299" />
				<circle
   d="m 430.55999,151.29401 c 0,1.1863 -0.9617,2.148 -2.148,2.148 -1.18631,0 -2.148,-0.9617 -2.148,-2.148 0,-1.18631 0.96169,-2.148 2.148,-2.148 1.1863,0 2.148,0.96169 2.148,2.148 z"
   style="fill:#71226c"
   sodipodi:ry="2.148"
   sodipodi:rx="2.148"
   sodipodi:cy="151.29401"
   sodipodi:cx="428.41199"
   id="circle1657"
   r="2.148"
   cy="151.29401"
   cx="428.41199" />
				<circle
   d="m 425.29499,150.444 c 0,0.73288 -0.59412,1.327 -1.327,1.327 -0.73288,0 -1.327,-0.59412 -1.327,-1.327 0,-0.73288 0.59412,-1.327 1.327,-1.327 0.73288,0 1.327,0.59412 1.327,1.327 z"
   style="fill:#71226c"
   sodipodi:ry="1.327"
   sodipodi:rx="1.327"
   sodipodi:cy="150.444"
   sodipodi:cx="423.96799"
   id="circle1659"
   r="1.327"
   cy="150.444"
   cx="423.96799" />
				<circle
   d="m 428.54299,138.33501 c 0,1.1863 -0.96169,2.148 -2.148,2.148 -1.18631,0 -2.148,-0.9617 -2.148,-2.148 0,-1.18631 0.96169,-2.148 2.148,-2.148 1.18631,0 2.148,0.96169 2.148,2.148 z"
   style="fill:#71226c"
   sodipodi:ry="2.148"
   sodipodi:rx="2.148"
   sodipodi:cy="138.33501"
   sodipodi:cx="426.39499"
   id="circle1661"
   r="2.148"
   cy="138.33501"
   cx="426.39499" />
				<circle
   d="m 404.82402,140.093 c 0,0.7848 -0.63621,1.421 -1.421,1.421 -0.7848,0 -1.421,-0.6362 -1.421,-1.421 0,-0.78479 0.6362,-1.421 1.421,-1.421 0.78479,0 1.421,0.63621 1.421,1.421 z"
   style="fill:#71226c"
   sodipodi:ry="1.421"
   sodipodi:rx="1.421"
   sodipodi:cy="140.093"
   sodipodi:cx="403.40302"
   id="circle1663"
   r="1.421"
   cy="140.093"
   cx="403.40302" />
				<circle
   d="m 412.73499,137.48 c 0,0.97809 -0.7929,1.771 -1.771,1.771 -0.9781,0 -1.771,-0.79291 -1.771,-1.771 0,-0.9781 0.7929,-1.771 1.771,-1.771 0.9781,0 1.771,0.7929 1.771,1.771 z"
   style="fill:#71226c"
   sodipodi:ry="1.771"
   sodipodi:rx="1.771"
   sodipodi:cy="137.48"
   sodipodi:cx="410.96399"
   id="circle1665"
   r="1.771"
   cy="137.48"
   cx="410.96399" />
				<circle
   d="m 421.82001,137.672 c 0,1.39949 -1.13451,2.534 -2.534,2.534 -1.39949,0 -2.534,-1.13451 -2.534,-2.534 0,-1.39949 1.13451,-2.534 2.534,-2.534 1.39949,0 2.534,1.13451 2.534,2.534 z"
   style="fill:#71226c"
   sodipodi:ry="2.5339999"
   sodipodi:rx="2.5339999"
   sodipodi:cy="137.672"
   sodipodi:cx="419.28601"
   id="circle1667"
   r="2.5339999"
   cy="137.672"
   cx="419.28601" />
				<circle
   d="m 416.91399,141.612 c 0,1.18631 -0.96169,2.148 -2.148,2.148 -1.18631,0 -2.148,-0.96169 -2.148,-2.148 0,-1.18631 0.96169,-2.148 2.148,-2.148 1.18631,0 2.148,0.96169 2.148,2.148 z"
   style="fill:#71226c"
   sodipodi:ry="2.148"
   sodipodi:rx="2.148"
   sodipodi:cy="141.612"
   sodipodi:cx="414.76599"
   id="circle1669"
   r="2.148"
   cy="141.612"
   cx="414.76599" />
				<circle
   d="m 425.67502,142.438 c 0,1.18576 -0.96125,2.147 -2.147,2.147 -1.18576,0 -2.147,-0.96124 -2.147,-2.147 0,-1.18575 0.96124,-2.147 2.147,-2.147 1.18575,0 2.147,0.96125 2.147,2.147 z"
   style="fill:#71226c"
   sodipodi:ry="2.1470001"
   sodipodi:rx="2.1470001"
   sodipodi:cy="142.438"
   sodipodi:cx="423.52802"
   id="circle1671"
   r="2.1470001"
   cy="142.438"
   cx="423.52802" />
				<circle
   d="m 411.81099,141.742 c 0,0.77044 -0.62457,1.395 -1.395,1.395 -0.77044,0 -1.395,-0.62456 -1.395,-1.395 0,-0.77043 0.62456,-1.395 1.395,-1.395 0.77043,0 1.395,0.62457 1.395,1.395 z"
   style="fill:#71226c"
   sodipodi:ry="1.395"
   sodipodi:rx="1.395"
   sodipodi:cy="141.742"
   sodipodi:cx="410.41599"
   id="circle1673"
   r="1.395"
   cy="141.742"
   cx="410.41599" />
				<circle
   d="m 407.69899,136.916 c 0,0.84665 -0.68635,1.533 -1.533,1.533 -0.84666,0 -1.533,-0.68635 -1.533,-1.533 0,-0.84665 0.68634,-1.533 1.533,-1.533 0.84665,0 1.533,0.68635 1.533,1.533 z"
   style="fill:#71226c"
   sodipodi:ry="1.533"
   sodipodi:rx="1.533"
   sodipodi:cy="136.916"
   sodipodi:cx="406.16599"
   id="circle1675"
   r="1.533"
   cy="136.916"
   cx="406.16599" />
				<circle
   d="m 421.62099,146.05901 c 0,0.8461 -0.6859,1.532 -1.532,1.532 -0.8461,0 -1.532,-0.6859 -1.532,-1.532 0,-0.8461 0.6859,-1.532 1.532,-1.532 0.8461,0 1.532,0.6859 1.532,1.532 z"
   style="fill:#71226c"
   sodipodi:ry="1.5319999"
   sodipodi:rx="1.5319999"
   sodipodi:cy="146.05901"
   sodipodi:cx="420.08899"
   id="circle1677"
   r="1.5319999"
   cy="146.05901"
   cx="420.08899" />
				<circle
   d="m 420.406,142.159 c 0,0.69532 -0.56367,1.259 -1.259,1.259 -0.69532,0 -1.259,-0.56368 -1.259,-1.259 0,-0.69533 0.56368,-1.259 1.259,-1.259 0.69533,0 1.259,0.56367 1.259,1.259 z"
   style="fill:#71226c"
   sodipodi:ry="1.2589999"
   sodipodi:rx="1.2589999"
   sodipodi:cy="142.159"
   sodipodi:cx="419.147"
   id="circle1679"
   r="1.2589999"
   cy="142.159"
   cx="419.147" />
				<circle
   d="m 427.99001,134.23399 c 0,0.69588 -0.56412,1.26 -1.26,1.26 -0.69588,0 -1.26,-0.56412 -1.26,-1.26 0,-0.69588 0.56412,-1.26 1.26,-1.26 0.69588,0 1.26,0.56412 1.26,1.26 z"
   style="fill:#71226c"
   sodipodi:ry="1.26"
   sodipodi:rx="1.26"
   sodipodi:cy="134.23399"
   sodipodi:cx="426.73001"
   id="circle1681"
   r="1.26"
   cy="134.23399"
   cx="426.73001" />
				<circle
   d="m 433.944,134.23399 c 0,0.69533 -0.56368,1.259 -1.259,1.259 -0.69533,0 -1.259,-0.56367 -1.259,-1.259 0,-0.69532 0.56367,-1.259 1.259,-1.259 0.69532,0 1.259,0.56368 1.259,1.259 z"
   style="fill:#71226c"
   sodipodi:ry="1.2589999"
   sodipodi:rx="1.2589999"
   sodipodi:cy="134.23399"
   sodipodi:cx="432.685"
   id="circle1683"
   r="1.2589999"
   cy="134.23399"
   cx="432.685" />
				<circle
   d="m 430.98001,132.866 c 0,0.3402 -0.27579,0.616 -0.616,0.616 -0.3402,0 -0.616,-0.2758 -0.616,-0.616 0,-0.34021 0.2758,-0.616 0.616,-0.616 0.34021,0 0.616,0.27579 0.616,0.616 z"
   style="fill:#71226c"
   sodipodi:ry="0.616"
   sodipodi:rx="0.616"
   sodipodi:cy="132.866"
   sodipodi:cx="430.36401"
   id="circle1685"
   r="0.616"
   cy="132.866"
   cx="430.36401" />
				<circle
   d="m 415.88699,137.724 c 0,0.64286 -0.52114,1.164 -1.164,1.164 -0.64286,0 -1.164,-0.52114 -1.164,-1.164 0,-0.64286 0.52114,-1.164 1.164,-1.164 0.64286,0 1.164,0.52114 1.164,1.164 z"
   style="fill:#71226c"
   sodipodi:ry="1.164"
   sodipodi:rx="1.164"
   sodipodi:cy="137.724"
   sodipodi:cx="414.72299"
   id="circle1687"
   r="1.164"
   cy="137.724"
   cx="414.72299" />
				<circle
   d="m 424.037,135.61301 c 0,0.51086 -0.41414,0.925 -0.925,0.925 -0.51086,0 -0.925,-0.41414 -0.925,-0.925 0,-0.51087 0.41414,-0.925 0.925,-0.925 0.51086,0 0.925,0.41413 0.925,0.925 z"
   style="fill:#71226c"
   sodipodi:ry="0.92500001"
   sodipodi:rx="0.92500001"
   sodipodi:cy="135.61301"
   sodipodi:cx="423.112"
   id="circle1689"
   r="0.92500001"
   cy="135.61301"
   cx="423.112" />
				<circle
   d="m 430.59999,135.19099 c 0,0.51032 -0.41368,0.924 -0.924,0.924 -0.51031,0 -0.924,-0.41368 -0.924,-0.924 0,-0.51031 0.41369,-0.924 0.924,-0.924 0.51032,0 0.924,0.41369 0.924,0.924 z"
   style="fill:#71226c"
   sodipodi:ry="0.92400002"
   sodipodi:rx="0.92400002"
   sodipodi:cy="135.19099"
   sodipodi:cx="429.67599"
   id="circle1691"
   r="0.92400002"
   cy="135.19099"
   cx="429.67599" />
				<circle
   d="m 407.15199,143.06 c 0,0.54455 -0.44145,0.986 -0.986,0.986 -0.54456,0 -0.986,-0.44145 -0.986,-0.986 0,-0.54456 0.44144,-0.986 0.986,-0.986 0.54455,0 0.986,0.44144 0.986,0.986 z"
   style="fill:#71226c"
   sodipodi:ry="0.986"
   sodipodi:rx="0.986"
   sodipodi:cy="143.06"
   sodipodi:cx="406.16599"
   id="circle1693"
   r="0.986"
   cy="143.06"
   cx="406.16599" />
				<circle
   d="m 416.87501,159.899 c 0,0.54455 -0.44145,0.986 -0.986,0.986 -0.54456,0 -0.986,-0.44145 -0.986,-0.986 0,-0.54455 0.44144,-0.986 0.986,-0.986 0.54455,0 0.986,0.44145 0.986,0.986 z"
   style="fill:#71226c"
   sodipodi:ry="0.986"
   sodipodi:rx="0.986"
   sodipodi:cy="159.899"
   sodipodi:cx="415.88901"
   id="circle1695"
   r="0.986"
   cy="159.899"
   cx="415.88901" />
				<circle
   d="m 402.14401,167.661 c 0,2.29253 -1.85846,4.151 -4.151,4.151 -2.29253,0 -4.151,-1.85847 -4.151,-4.151 0,-2.29254 1.85847,-4.151 4.151,-4.151 2.29254,0 4.151,1.85846 4.151,4.151 z"
   style="fill:#71226c"
   sodipodi:ry="4.151"
   sodipodi:rx="4.151"
   sodipodi:cy="167.661"
   sodipodi:cx="397.99301"
   id="circle1697"
   r="4.151"
   cy="167.661"
   cx="397.99301" />
				<circle
   d="m 434.148,138.474 c 0,1.18631 -0.96169,2.148 -2.148,2.148 -1.18631,0 -2.148,-0.96169 -2.148,-2.148 0,-1.18631 0.96169,-2.148 2.148,-2.148 1.18631,0 2.148,0.96169 2.148,2.148 z"
   style="fill:#71226c"
   sodipodi:ry="2.148"
   sodipodi:rx="2.148"
   sodipodi:cy="138.474"
   sodipodi:cx="432"
   id="circle1699"
   r="2.148"
   cy="138.474"
   cx="432" />
			</g>
			<circle
   d="m 390.889,109.247 c 0,0.69533 -0.56367,1.259 -1.259,1.259 -0.69532,0 -1.259,-0.56367 -1.259,-1.259 0,-0.69532 0.56368,-1.259 1.259,-1.259 0.69533,0 1.259,0.56368 1.259,1.259 z"
   style="fill:#71226c"
   sodipodi:ry="1.2589999"
   sodipodi:rx="1.2589999"
   sodipodi:cy="109.247"
   sodipodi:cx="389.63"
   id="circle1701"
   r="1.2589999"
   cy="109.247"
   cx="389.63" />
		</g>
		<circle
   d="m 379.18401,145.888 c 0,1.91919 -1.55581,3.475 -3.475,3.475 -1.91918,0 -3.475,-1.55581 -3.475,-3.475 0,-1.91919 1.55582,-3.475 3.475,-3.475 1.91919,0 3.475,1.55581 3.475,3.475 z"
   style="fill:#71226c"
   sodipodi:ry="3.4749999"
   sodipodi:rx="3.4749999"
   sodipodi:cy="145.888"
   sodipodi:cx="375.70901"
   id="circle1703"
   r="3.4749999"
   cy="145.888"
   cx="375.70901" />
	</g>
	<g
   id="g1705">
		<circle
   d="m 372.087,166.26801 c 0,1.18575 -0.96124,2.147 -2.147,2.147 -1.18575,0 -2.147,-0.96125 -2.147,-2.147 0,-1.18576 0.96125,-2.147 2.147,-2.147 1.18576,0 2.147,0.96124 2.147,2.147 z"
   style="fill:#e87506"
   sodipodi:ry="2.1470001"
   sodipodi:rx="2.1470001"
   sodipodi:cy="166.26801"
   sodipodi:cx="369.94"
   id="circle1707"
   r="2.1470001"
   cy="166.26801"
   cx="369.94" />
		<circle
   d="m 433.39699,130.39999 c 0,0.69588 -0.56412,1.26 -1.26,1.26 -0.69588,0 -1.26,-0.56412 -1.26,-1.26 0,-0.69587 0.56412,-1.26 1.26,-1.26 0.69588,0 1.26,0.56413 1.26,1.26 z"
   style="fill:#e87506"
   sodipodi:ry="1.26"
   sodipodi:rx="1.26"
   sodipodi:cy="130.39999"
   sodipodi:cx="432.13699"
   id="circle1709"
   r="1.26"
   cy="130.39999"
   cx="432.13699" />
		<circle
   d="m 432.389,126.702 c 0,0.51031 -0.41369,0.924 -0.924,0.924 -0.51031,0 -0.924,-0.41369 -0.924,-0.924 0,-0.51031 0.41369,-0.924 0.924,-0.924 0.51031,0 0.924,0.41369 0.924,0.924 z"
   style="fill:#e87506"
   sodipodi:ry="0.92400002"
   sodipodi:rx="0.92400002"
   sodipodi:cy="126.702"
   sodipodi:cx="431.465"
   id="circle1711"
   r="0.92400002"
   cy="126.702"
   cx="431.465" />
		<circle
   d="m 364.49199,114.671 c 0,2.23896 -1.81504,4.054 -4.054,4.054 -2.23896,0 -4.054,-1.81504 -4.054,-4.054 0,-2.23896 1.81504,-4.054 4.054,-4.054 2.23896,0 4.054,1.81504 4.054,4.054 z"
   style="fill:#e87506"
   sodipodi:ry="4.0539999"
   sodipodi:rx="4.0539999"
   sodipodi:cy="114.671"
   sodipodi:cx="360.43799"
   id="circle1713"
   r="4.0539999"
   cy="114.671"
   cx="360.43799" />
		<circle
   d="m 367.80699,139.952 c 0,1.45361 -1.17839,2.632 -2.632,2.632 -1.45362,0 -2.632,-1.17839 -2.632,-2.632 0,-1.45362 1.17838,-2.632 2.632,-2.632 1.45361,0 2.632,1.17838 2.632,2.632 z"
   style="fill:#e87506"
   sodipodi:ry="2.632"
   sodipodi:rx="2.632"
   sodipodi:cy="139.952"
   sodipodi:cx="365.17499"
   id="circle1715"
   r="2.632"
   cy="139.952"
   cx="365.17499" />
		<circle
   d="m 377.86501,105.929 c 0,1.92913 -1.56387,3.493 -3.493,3.493 -1.92913,0 -3.493,-1.56387 -3.493,-3.493 0,-1.92913 1.56387,-3.493 3.493,-3.493 1.92913,0 3.493,1.56387 3.493,3.493 z"
   style="fill:#e87506"
   sodipodi:ry="3.493"
   sodipodi:rx="3.493"
   sodipodi:cy="105.929"
   sodipodi:cx="374.37201"
   id="circle1717"
   r="3.493"
   cy="105.929"
   cx="374.37201" />
		<circle
   d="m 384.66801,99.259003 c 0,1.941837 -1.57417,3.515997 -3.516,3.515997 -1.94184,0 -3.516,-1.57416 -3.516,-3.515997 0,-1.941834 1.57416,-3.516 3.516,-3.516 1.94183,0 3.516,1.574166 3.516,3.516 z"
   style="fill:#e87506"
   sodipodi:ry="3.516"
   sodipodi:rx="3.516"
   sodipodi:cy="99.259003"
   sodipodi:cx="381.15201"
   id="circle1719"
   r="3.516"
   cy="99.259003"
   cx="381.15201" />
		<circle
   d="m 388.881,156.845 c 0,1.40557 -1.13944,2.545 -2.545,2.545 -1.40557,0 -2.545,-1.13943 -2.545,-2.545 0,-1.40556 1.13943,-2.545 2.545,-2.545 1.40556,0 2.545,1.13944 2.545,2.545 z"
   style="fill:#e87506"
   sodipodi:ry="2.5450001"
   sodipodi:rx="2.5450001"
   sodipodi:cy="156.845"
   sodipodi:cx="386.336"
   id="circle1721"
   r="2.5450001"
   cy="156.845"
   cx="386.336" />
		<circle
   d="m 383.848,128.66499 c 0,1.94184 -1.57417,3.516 -3.516,3.516 -1.94183,0 -3.516,-1.57416 -3.516,-3.516 0,-1.94183 1.57417,-3.516 3.516,-3.516 1.94183,0 3.516,1.57417 3.516,3.516 z"
   style="fill:#e87506"
   sodipodi:ry="3.516"
   sodipodi:rx="3.516"
   sodipodi:cy="128.66499"
   sodipodi:cx="380.332"
   id="circle1723"
   r="3.516"
   cy="128.66499"
   cx="380.332" />
		<circle
   d="m 364.87999,129.896 c 0,1.1863 -0.96169,2.148 -2.148,2.148 -1.1863,0 -2.148,-0.9617 -2.148,-2.148 0,-1.18631 0.9617,-2.148 2.148,-2.148 1.18631,0 2.148,0.96169 2.148,2.148 z"
   style="fill:#e87506"
   sodipodi:ry="2.148"
   sodipodi:rx="2.148"
   sodipodi:cy="129.896"
   sodipodi:cx="362.73199"
   id="circle1725"
   r="2.148"
   cy="129.896"
   cx="362.73199" />
		<circle
   d="m 370.508,147.12399 c 0,1.06867 -0.86633,1.935 -1.935,1.935 -1.06867,0 -1.935,-0.86633 -1.935,-1.935 0,-1.06867 0.86633,-1.935 1.935,-1.935 1.06867,0 1.935,0.86633 1.935,1.935 z"
   style="fill:#e87506"
   sodipodi:ry="1.9349999"
   sodipodi:rx="1.9349999"
   sodipodi:cy="147.12399"
   sodipodi:cx="368.573"
   id="circle1727"
   r="1.9349999"
   cy="147.12399"
   cx="368.573" />
		<circle
   d="m 367.85299,122.778 c 0,1.18576 -0.96124,2.147 -2.147,2.147 -1.18575,0 -2.147,-0.96124 -2.147,-2.147 0,-1.18576 0.96125,-2.147 2.147,-2.147 1.18576,0 2.147,0.96124 2.147,2.147 z"
   style="fill:#e87506"
   sodipodi:ry="2.1470001"
   sodipodi:rx="2.1470001"
   sodipodi:cy="122.778"
   sodipodi:cx="365.70599"
   id="circle1729"
   r="2.1470001"
   cy="122.778"
   cx="365.70599" />
		<circle
   d="m 383.296,106.234 c 0,1.18686 -0.96214,2.149 -2.149,2.149 -1.18686,0 -2.149,-0.96214 -2.149,-2.149 0,-1.18686 0.96214,-2.149 2.149,-2.149 1.18686,0 2.149,0.96214 2.149,2.149 z"
   style="fill:#e87506"
   sodipodi:ry="2.1489999"
   sodipodi:rx="2.1489999"
   sodipodi:cy="106.234"
   sodipodi:cx="381.147"
   id="circle1731"
   r="2.1489999"
   cy="106.234"
   cx="381.147" />
		<circle
   d="m 389.59701,96.667999 c 0,1.186308 -0.9617,2.148 -2.148,2.148 -1.18631,0 -2.148,-0.961692 -2.148,-2.148 0,-1.186307 0.96169,-2.148 2.148,-2.148 1.1863,0 2.148,0.961693 2.148,2.148 z"
   style="fill:#e87506"
   sodipodi:ry="2.148"
   sodipodi:rx="2.148"
   sodipodi:cy="96.667999"
   sodipodi:cx="387.44901"
   id="circle1733"
   r="2.148"
   cy="96.667999"
   cx="387.44901" />
		<circle
   d="m 397.38601,95.983002 c 0,1.186307 -0.9617,2.148 -2.148,2.148 -1.18631,0 -2.148,-0.961693 -2.148,-2.148 0,-1.186308 0.96169,-2.148 2.148,-2.148 1.1863,0 2.148,0.961692 2.148,2.148 z"
   style="fill:#e87506"
   sodipodi:ry="2.148"
   sodipodi:rx="2.148"
   sodipodi:cy="95.983002"
   sodipodi:cx="395.23801"
   id="circle1735"
   r="2.148"
   cy="95.983002"
   cx="395.23801" />
		<circle
   d="m 408.871,98.444 c 0,1.185756 -0.96125,2.147 -2.147,2.147 -1.18576,0 -2.147,-0.961244 -2.147,-2.147 0,-1.185755 0.96124,-2.147 2.147,-2.147 1.18575,0 2.147,0.961245 2.147,2.147 z"
   style="fill:#e87506"
   sodipodi:ry="2.1470001"
   sodipodi:rx="2.1470001"
   sodipodi:cy="98.444"
   sodipodi:cx="406.724"
   id="circle1737"
   r="2.1470001"
   cy="98.444"
   cx="406.724" />
		<circle
   d="m 401.62501,112.598 c 0,0.84665 -0.68635,1.533 -1.533,1.533 -0.84665,0 -1.533,-0.68635 -1.533,-1.533 0,-0.84665 0.68635,-1.533 1.533,-1.533 0.84665,0 1.533,0.68635 1.533,1.533 z"
   style="fill:#e87506"
   sodipodi:ry="1.533"
   sodipodi:rx="1.533"
   sodipodi:cy="112.598"
   sodipodi:cx="400.09201"
   id="circle1739"
   r="1.533"
   cy="112.598"
   cx="400.09201" />
		<circle
   d="m 371.85301,138.306 c 0,0.84665 -0.68635,1.533 -1.533,1.533 -0.84666,0 -1.533,-0.68635 -1.533,-1.533 0,-0.84665 0.68634,-1.533 1.533,-1.533 0.84665,0 1.533,0.68635 1.533,1.533 z"
   style="fill:#e87506"
   sodipodi:ry="1.533"
   sodipodi:rx="1.533"
   sodipodi:cy="138.306"
   sodipodi:cx="370.32001"
   id="circle1741"
   r="1.533"
   cy="138.306"
   cx="370.32001" />
		<path
   style="fill:#e87506"
   id="path1743"
   d="m 364.076,134.749 c 0,0.847 -0.686,1.533 -1.531,1.533 -0.85,0 -1.535,-0.687 -1.535,-1.533 0,-0.846 0.686,-1.533 1.535,-1.533 0.846,0 1.531,0.686 1.531,1.533 z" />
		<circle
   d="m 369.90001,103.979 c 0,0.8461 -0.6859,1.532 -1.532,1.532 -0.8461,0 -1.532,-0.6859 -1.532,-1.532 0,-0.8461 0.6859,-1.532 1.532,-1.532 0.8461,0 1.532,0.6859 1.532,1.532 z"
   style="fill:#e87506"
   sodipodi:ry="1.5319999"
   sodipodi:rx="1.5319999"
   sodipodi:cy="103.979"
   sodipodi:cx="368.36801"
   id="circle1745"
   r="1.5319999"
   cy="103.979"
   cx="368.36801" />
		<circle
   d="m 376.25401,99.811996 c 0,0.846654 -0.68635,1.533004 -1.533,1.533004 -0.84665,0 -1.533,-0.68635 -1.533,-1.533004 0,-0.846652 0.68635,-1.533 1.533,-1.533 0.84665,0 1.533,0.686348 1.533,1.533 z"
   style="fill:#e87506"
   sodipodi:ry="1.533"
   sodipodi:rx="1.533"
   sodipodi:cy="99.811996"
   sodipodi:cx="374.72101"
   id="circle1747"
   r="1.533"
   cy="99.811996"
   cx="374.72101" />
		<circle
   d="m 370.31001,109.453 c 0,0.84666 -0.68635,1.533 -1.533,1.533 -0.84665,0 -1.533,-0.68634 -1.533,-1.533 0,-0.84665 0.68635,-1.533 1.533,-1.533 0.84665,0 1.533,0.68635 1.533,1.533 z"
   style="fill:#e87506"
   sodipodi:ry="1.533"
   sodipodi:rx="1.533"
   sodipodi:cy="109.453"
   sodipodi:cx="368.77701"
   id="circle1749"
   r="1.533"
   cy="109.453"
   cx="368.77701" />
		<circle
   d="m 372.22401,161.278 c 0,0.84665 -0.68635,1.533 -1.533,1.533 -0.84665,0 -1.533,-0.68635 -1.533,-1.533 0,-0.84665 0.68635,-1.533 1.533,-1.533 0.84665,0 1.533,0.68635 1.533,1.533 z"
   style="fill:#e87506"
   sodipodi:ry="1.533"
   sodipodi:rx="1.533"
   sodipodi:cy="161.278"
   sodipodi:cx="370.69101"
   id="circle1751"
   r="1.533"
   cy="161.278"
   cx="370.69101" />
		<circle
   d="m 375.166,169.96001 c 0,0.84665 -0.68635,1.533 -1.533,1.533 -0.84666,0 -1.533,-0.68635 -1.533,-1.533 0,-0.84666 0.68634,-1.533 1.533,-1.533 0.84665,0 1.533,0.68634 1.533,1.533 z"
   style="fill:#e87506"
   sodipodi:ry="1.533"
   sodipodi:rx="1.533"
   sodipodi:cy="169.96001"
   sodipodi:cx="373.633"
   id="circle1753"
   r="1.533"
   cy="169.96001"
   cx="373.633" />
		<circle
   d="m 387.60701,173.925 c 0,0.8461 -0.6859,1.532 -1.532,1.532 -0.8461,0 -1.532,-0.6859 -1.532,-1.532 0,-0.8461 0.6859,-1.532 1.532,-1.532 0.8461,0 1.532,0.6859 1.532,1.532 z"
   style="fill:#e87506"
   sodipodi:ry="1.5319999"
   sodipodi:rx="1.5319999"
   sodipodi:cy="173.925"
   sodipodi:cx="386.07501"
   id="circle1755"
   r="1.5319999"
   cy="173.925"
   cx="386.07501" />
		<circle
   d="m 372.429,156.83299 c 0,0.8461 -0.6859,1.532 -1.532,1.532 -0.8461,0 -1.532,-0.6859 -1.532,-1.532 0,-0.8461 0.6859,-1.532 1.532,-1.532 0.8461,0 1.532,0.6859 1.532,1.532 z"
   style="fill:#e87506"
   sodipodi:ry="1.5319999"
   sodipodi:rx="1.5319999"
   sodipodi:cy="156.83299"
   sodipodi:cx="370.897"
   id="circle1757"
   r="1.5319999"
   cy="156.83299"
   cx="370.897" />
		<circle
   d="m 385.55599,161.071 c 0,0.8461 -0.6859,1.532 -1.532,1.532 -0.8461,0 -1.532,-0.6859 -1.532,-1.532 0,-0.8461 0.6859,-1.532 1.532,-1.532 0.8461,0 1.532,0.6859 1.532,1.532 z"
   style="fill:#e87506"
   sodipodi:ry="1.5319999"
   sodipodi:rx="1.5319999"
   sodipodi:cy="161.071"
   sodipodi:cx="384.02399"
   id="circle1759"
   r="1.5319999"
   cy="161.071"
   cx="384.02399" />
		<circle
   d="m 393.07801,169.823 c 0,0.84665 -0.68634,1.533 -1.533,1.533 -0.84665,0 -1.533,-0.68635 -1.533,-1.533 0,-0.84665 0.68635,-1.533 1.533,-1.533 0.84666,0 1.533,0.68635 1.533,1.533 z"
   style="fill:#e87506"
   sodipodi:ry="1.533"
   sodipodi:rx="1.533"
   sodipodi:cy="169.823"
   sodipodi:cx="391.54501"
   id="circle1761"
   r="1.533"
   cy="169.823"
   cx="391.54501" />
		<circle
   d="m 389.52299,162.028 c 0,0.84665 -0.68635,1.533 -1.533,1.533 -0.84665,0 -1.533,-0.68635 -1.533,-1.533 0,-0.84665 0.68635,-1.533 1.533,-1.533 0.84665,0 1.533,0.68635 1.533,1.533 z"
   style="fill:#e87506"
   sodipodi:ry="1.533"
   sodipodi:rx="1.533"
   sodipodi:cy="162.028"
   sodipodi:cx="387.98999"
   id="circle1763"
   r="1.533"
   cy="162.028"
   cx="387.98999" />
		<circle
   d="m 392.56999,158.366 c 0,0.84665 -0.68635,1.533 -1.533,1.533 -0.84666,0 -1.533,-0.68635 -1.533,-1.533 0,-0.84666 0.68634,-1.533 1.533,-1.533 0.84665,0 1.533,0.68634 1.533,1.533 z"
   style="fill:#e87506"
   sodipodi:ry="1.533"
   sodipodi:rx="1.533"
   sodipodi:cy="158.366"
   sodipodi:cx="391.03699"
   id="circle1765"
   r="1.533"
   cy="158.366"
   cx="391.03699" />
		<circle
   d="m 393.89901,120.322 c 0,0.69533 -0.56367,1.259 -1.259,1.259 -0.69532,0 -1.259,-0.56367 -1.259,-1.259 0,-0.69533 0.56368,-1.259 1.259,-1.259 0.69533,0 1.259,0.56367 1.259,1.259 z"
   style="fill:#e87506"
   sodipodi:ry="1.2589999"
   sodipodi:rx="1.2589999"
   sodipodi:cy="120.322"
   sodipodi:cx="392.64001"
   id="circle1767"
   r="1.2589999"
   cy="120.322"
   cx="392.64001" />
		<circle
   d="m 369.96899,113.896 c 0,0.69533 -0.56367,1.259 -1.259,1.259 -0.69533,0 -1.259,-0.56367 -1.259,-1.259 0,-0.69532 0.56367,-1.259 1.259,-1.259 0.69533,0 1.259,0.56368 1.259,1.259 z"
   style="fill:#e87506"
   sodipodi:ry="1.2589999"
   sodipodi:rx="1.2589999"
   sodipodi:cy="113.896"
   sodipodi:cx="368.70999"
   id="circle1769"
   r="1.2589999"
   cy="113.896"
   cx="368.70999" />
		<circle
   d="m 412.91,99.397003 c 0,0.695327 -0.56367,1.258997 -1.259,1.258997 -0.69533,0 -1.259,-0.56367 -1.259,-1.258997 0,-0.695326 0.56367,-1.259 1.259,-1.259 0.69533,0 1.259,0.563674 1.259,1.259 z"
   style="fill:#e87506"
   sodipodi:ry="1.2589999"
   sodipodi:rx="1.2589999"
   sodipodi:cy="99.397003"
   sodipodi:cx="411.651"
   id="circle1771"
   r="1.2589999"
   cy="99.397003"
   cx="411.651" />
		<circle
   d="m 416.46499,101.589 c 0,0.69532 -0.56367,1.259 -1.259,1.259 -0.69532,0 -1.259,-0.56368 -1.259,-1.259 0,-0.69533 0.56368,-1.259 1.259,-1.259 0.69533,0 1.259,0.56367 1.259,1.259 z"
   style="fill:#e87506"
   sodipodi:ry="1.2589999"
   sodipodi:rx="1.2589999"
   sodipodi:cy="101.589"
   sodipodi:cx="415.20599"
   id="circle1773"
   r="1.2589999"
   cy="101.589"
   cx="415.20599" />
		<circle
   d="m 397.043,103.505 c 0,0.69532 -0.56368,1.259 -1.259,1.259 -0.69533,0 -1.259,-0.56368 -1.259,-1.259 0,-0.69533 0.56367,-1.259 1.259,-1.259 0.69532,0 1.259,0.56367 1.259,1.259 z"
   style="fill:#e87506"
   sodipodi:ry="1.2589999"
   sodipodi:rx="1.2589999"
   sodipodi:cy="103.505"
   sodipodi:cx="395.784"
   id="circle1775"
   r="1.2589999"
   cy="103.505"
   cx="395.784" />
		<circle
   d="m 374.89099,117.589 c 0,0.69532 -0.56368,1.259 -1.259,1.259 -0.69533,0 -1.259,-0.56368 -1.259,-1.259 0,-0.69533 0.56367,-1.259 1.259,-1.259 0.69532,0 1.259,0.56367 1.259,1.259 z"
   style="fill:#e87506"
   sodipodi:ry="1.2589999"
   sodipodi:rx="1.2589999"
   sodipodi:cy="117.589"
   sodipodi:cx="373.63199"
   id="circle1777"
   r="1.2589999"
   cy="117.589"
   cx="373.63199" />
		<circle
   d="m 360.31701,127.167 c 0,0.69533 -0.56367,1.259 -1.259,1.259 -0.69532,0 -1.259,-0.56367 -1.259,-1.259 0,-0.69533 0.56368,-1.259 1.259,-1.259 0.69533,0 1.259,0.56367 1.259,1.259 z"
   style="fill:#e87506"
   sodipodi:ry="1.2589999"
   sodipodi:rx="1.2589999"
   sodipodi:cy="127.167"
   sodipodi:cx="359.05801"
   id="circle1779"
   r="1.2589999"
   cy="127.167"
   cx="359.05801" />
		<circle
   d="m 419.742,104.325 c 0,0.69532 -0.56367,1.259 -1.259,1.259 -0.69532,0 -1.259,-0.56368 -1.259,-1.259 0,-0.69533 0.56368,-1.259 1.259,-1.259 0.69533,0 1.259,0.56367 1.259,1.259 z"
   style="fill:#e87506"
   sodipodi:ry="1.2589999"
   sodipodi:rx="1.2589999"
   sodipodi:cy="104.325"
   sodipodi:cx="418.483"
   id="circle1781"
   r="1.2589999"
   cy="104.325"
   cx="418.483" />
		<circle
   d="m 400.95101,95.745003 c 0,0.695879 -0.56412,1.26 -1.26,1.26 -0.69588,0 -1.26,-0.564121 -1.26,-1.26 0,-0.695879 0.56412,-1.26 1.26,-1.26 0.69588,0 1.26,0.564121 1.26,1.26 z"
   style="fill:#e87506"
   sodipodi:ry="1.26"
   sodipodi:rx="1.26"
   sodipodi:cy="95.745003"
   sodipodi:cx="399.69101"
   id="circle1783"
   r="1.26"
   cy="95.745003"
   cx="399.69101" />
		<circle
   d="m 423.84399,108.7 c 0,0.69532 -0.56367,1.259 -1.259,1.259 -0.69533,0 -1.259,-0.56368 -1.259,-1.259 0,-0.69533 0.56367,-1.259 1.259,-1.259 0.69533,0 1.259,0.56367 1.259,1.259 z"
   style="fill:#e87506"
   sodipodi:ry="1.2589999"
   sodipodi:rx="1.2589999"
   sodipodi:cy="108.7"
   sodipodi:cx="422.58499"
   id="circle1785"
   r="1.2589999"
   cy="108.7"
   cx="422.58499" />
		<circle
   d="m 371.58001,142.985 c 0,0.69533 -0.56367,1.259 -1.259,1.259 -0.69532,0 -1.259,-0.56367 -1.259,-1.259 0,-0.69533 0.56368,-1.259 1.259,-1.259 0.69533,0 1.259,0.56367 1.259,1.259 z"
   style="fill:#e87506"
   sodipodi:ry="1.2589999"
   sodipodi:rx="1.2589999"
   sodipodi:cy="142.985"
   sodipodi:cx="370.32101"
   id="circle1787"
   r="1.2589999"
   cy="142.985"
   cx="370.32101" />
		<circle
   d="m 373.84399,140.771 c 0,0.45729 -0.37071,0.828 -0.828,0.828 -0.45729,0 -0.828,-0.37071 -0.828,-0.828 0,-0.4573 0.37071,-0.828 0.828,-0.828 0.45729,0 0.828,0.3707 0.828,0.828 z"
   style="fill:#e87506"
   sodipodi:ry="0.82800001"
   sodipodi:rx="0.82800001"
   sodipodi:cy="140.771"
   sodipodi:cx="373.01599"
   id="circle1789"
   r="0.82800001"
   cy="140.771"
   cx="373.01599" />
		<circle
   d="m 366.29699,149.116 c 0,0.45784 -0.37116,0.829 -0.829,0.829 -0.45785,0 -0.829,-0.37116 -0.829,-0.829 0,-0.45785 0.37115,-0.829 0.829,-0.829 0.45784,0 0.829,0.37115 0.829,0.829 z"
   style="fill:#e87506"
   sodipodi:ry="0.829"
   sodipodi:rx="0.829"
   sodipodi:cy="149.116"
   sodipodi:cx="365.46799"
   id="circle1791"
   r="0.829"
   cy="149.116"
   cx="365.46799" />
		<circle
   d="m 361.59601,137.894 c 0,0.55891 -0.45308,1.012 -1.012,1.012 -0.55891,0 -1.012,-0.45309 -1.012,-1.012 0,-0.55891 0.45309,-1.012 1.012,-1.012 0.55892,0 1.012,0.45309 1.012,1.012 z"
   style="fill:#e87506"
   sodipodi:ry="1.012"
   sodipodi:rx="1.012"
   sodipodi:cy="137.894"
   sodipodi:cx="360.58401"
   id="circle1793"
   r="1.012"
   cy="137.894"
   cx="360.58401" />
		<circle
   d="m 390.50901,153.032 c 0,0.54455 -0.44145,0.986 -0.986,0.986 -0.54455,0 -0.986,-0.44145 -0.986,-0.986 0,-0.54456 0.44145,-0.986 0.986,-0.986 0.54455,0 0.986,0.44144 0.986,0.986 z"
   style="fill:#e87506"
   sodipodi:ry="0.986"
   sodipodi:rx="0.986"
   sodipodi:cy="153.032"
   sodipodi:cx="389.52301"
   id="circle1795"
   r="0.986"
   cy="153.032"
   cx="389.52301" />
		<circle
   d="m 392.53101,165.106 c 0,0.54456 -0.44144,0.986 -0.986,0.986 -0.54455,0 -0.986,-0.44144 -0.986,-0.986 0,-0.54455 0.44145,-0.986 0.986,-0.986 0.54456,0 0.986,0.44145 0.986,0.986 z"
   style="fill:#e87506"
   sodipodi:ry="0.986"
   sodipodi:rx="0.986"
   sodipodi:cy="165.106"
   sodipodi:cx="391.54501"
   id="circle1797"
   r="0.986"
   cy="165.106"
   cx="391.54501" />
		<circle
   d="m 402.30601,173.925 c 0,0.544 -0.441,0.985 -0.985,0.985 -0.544,0 -0.985,-0.441 -0.985,-0.985 0,-0.544 0.441,-0.985 0.985,-0.985 0.544,0 0.985,0.441 0.985,0.985 z"
   style="fill:#e87506"
   sodipodi:ry="0.98500001"
   sodipodi:rx="0.98500001"
   sodipodi:cy="173.925"
   sodipodi:cx="401.32101"
   id="circle1799"
   r="0.98500001"
   cy="173.925"
   cx="401.32101" />
		<circle
   d="m 387.44301,169.96001 c 0,0.544 -0.441,0.985 -0.985,0.985 -0.544,0 -0.985,-0.441 -0.985,-0.985 0,-0.544 0.441,-0.985 0.985,-0.985 0.544,0 0.985,0.441 0.985,0.985 z"
   style="fill:#e87506"
   sodipodi:ry="0.98500001"
   sodipodi:rx="0.98500001"
   sodipodi:cy="169.96001"
   sodipodi:cx="386.45801"
   id="circle1801"
   r="0.98500001"
   cy="169.96001"
   cx="386.45801" />
		<circle
   d="m 375.67699,156.849 c 0,0.544 -0.441,0.985 -0.985,0.985 -0.544,0 -0.985,-0.441 -0.985,-0.985 0,-0.544 0.441,-0.985 0.985,-0.985 0.544,0 0.985,0.441 0.985,0.985 z"
   style="fill:#e87506"
   sodipodi:ry="0.98500001"
   sodipodi:rx="0.98500001"
   sodipodi:cy="156.849"
   sodipodi:cx="374.69199"
   id="circle1803"
   r="0.98500001"
   cy="156.849"
   cx="374.69199" />
		<circle
   d="m 378.762,140.709 c 0,0.34021 -0.2758,0.616 -0.616,0.616 -0.34021,0 -0.616,-0.27579 -0.616,-0.616 0,-0.34021 0.27579,-0.616 0.616,-0.616 0.3402,0 0.616,0.27579 0.616,0.616 z"
   style="fill:#e87506"
   sodipodi:ry="0.616"
   sodipodi:rx="0.616"
   sodipodi:cy="140.709"
   sodipodi:cx="378.146"
   id="circle1805"
   r="0.616"
   cy="140.709"
   cx="378.146" />
		<circle
   d="m 376.23001,140.155 c 0,0.34021 -0.27579,0.616 -0.616,0.616 -0.3402,0 -0.616,-0.27579 -0.616,-0.616 0,-0.34021 0.2758,-0.616 0.616,-0.616 0.34021,0 0.616,0.27579 0.616,0.616 z"
   style="fill:#e87506"
   sodipodi:ry="0.616"
   sodipodi:rx="0.616"
   sodipodi:cy="140.155"
   sodipodi:cx="375.61401"
   id="circle1807"
   r="0.616"
   cy="140.155"
   cx="375.61401" />
		<circle
   d="m 378.349,153.401 c 0,0.34021 -0.27579,0.616 -0.616,0.616 -0.34021,0 -0.616,-0.27579 -0.616,-0.616 0,-0.34021 0.27579,-0.616 0.616,-0.616 0.34021,0 0.616,0.27579 0.616,0.616 z"
   style="fill:#e87506"
   sodipodi:ry="0.616"
   sodipodi:rx="0.616"
   sodipodi:cy="153.401"
   sodipodi:cx="377.733"
   id="circle1809"
   r="0.616"
   cy="153.401"
   cx="377.733" />
		<circle
   d="m 380.56601,154.3 c 0,0.34021 -0.27579,0.616 -0.616,0.616 -0.34021,0 -0.616,-0.27579 -0.616,-0.616 0,-0.3402 0.27579,-0.616 0.616,-0.616 0.34021,0 0.616,0.2758 0.616,0.616 z"
   style="fill:#e87506"
   sodipodi:ry="0.616"
   sodipodi:rx="0.616"
   sodipodi:cy="154.3"
   sodipodi:cx="379.95001"
   id="circle1811"
   r="0.616"
   cy="154.3"
   cx="379.95001" />
		<circle
   d="m 397.494,126.887 c 0,0.33966 -0.27535,0.615 -0.615,0.615 -0.33966,0 -0.615,-0.27534 -0.615,-0.615 0,-0.33965 0.27534,-0.615 0.615,-0.615 0.33965,0 0.615,0.27535 0.615,0.615 z"
   style="fill:#e87506"
   sodipodi:ry="0.61500001"
   sodipodi:rx="0.61500001"
   sodipodi:cy="126.887"
   sodipodi:cx="396.879"
   id="circle1813"
   r="0.61500001"
   cy="126.887"
   cx="396.879" />
		<circle
   d="m 410.89402,119.503 c 0,0.34021 -0.2758,0.616 -0.616,0.616 -0.34021,0 -0.616,-0.27579 -0.616,-0.616 0,-0.34021 0.27579,-0.616 0.616,-0.616 0.3402,0 0.616,0.27579 0.616,0.616 z"
   style="fill:#e87506"
   sodipodi:ry="0.616"
   sodipodi:rx="0.616"
   sodipodi:cy="119.503"
   sodipodi:cx="410.27802"
   id="circle1815"
   r="0.616"
   cy="119.503"
   cx="410.27802" />
		<circle
   d="m 409.715,117.315 c 0,0.34021 -0.27579,0.616 -0.616,0.616 -0.34021,0 -0.616,-0.27579 -0.616,-0.616 0,-0.3402 0.27579,-0.616 0.616,-0.616 0.34021,0 0.616,0.2758 0.616,0.616 z"
   style="fill:#e87506"
   sodipodi:ry="0.616"
   sodipodi:rx="0.616"
   sodipodi:cy="117.315"
   sodipodi:cx="409.099"
   id="circle1817"
   r="0.616"
   cy="117.315"
   cx="409.099" />
		<circle
   d="m 405.836,125.382 c 0,0.34021 -0.27579,0.616 -0.616,0.616 -0.34021,0 -0.616,-0.27579 -0.616,-0.616 0,-0.3402 0.27579,-0.616 0.616,-0.616 0.34021,0 0.616,0.2758 0.616,0.616 z"
   style="fill:#e87506"
   sodipodi:ry="0.616"
   sodipodi:rx="0.616"
   sodipodi:cy="125.382"
   sodipodi:cx="405.22"
   id="circle1819"
   r="0.616"
   cy="125.382"
   cx="405.22" />
		<circle
   d="m 405.97199,117.314 c 0,0.34021 -0.2758,0.616 -0.616,0.616 -0.34021,0 -0.616,-0.27579 -0.616,-0.616 0,-0.3402 0.27579,-0.616 0.616,-0.616 0.3402,0 0.616,0.2758 0.616,0.616 z"
   style="fill:#e87506"
   sodipodi:ry="0.616"
   sodipodi:rx="0.616"
   sodipodi:cy="117.314"
   sodipodi:cx="405.35599"
   id="circle1821"
   r="0.616"
   cy="117.314"
   cx="405.35599" />
		<circle
   d="m 385.25601,119.092 c 0,0.34021 -0.27579,0.616 -0.616,0.616 -0.3402,0 -0.616,-0.27579 -0.616,-0.616 0,-0.3402 0.2758,-0.616 0.616,-0.616 0.34021,0 0.616,0.2758 0.616,0.616 z"
   style="fill:#e87506"
   sodipodi:ry="0.616"
   sodipodi:rx="0.616"
   sodipodi:cy="119.092"
   sodipodi:cx="384.64001"
   id="circle1823"
   r="0.616"
   cy="119.092"
   cx="384.64001" />
		<circle
   d="m 401.11701,135.71201 c 0,0.33965 -0.27534,0.615 -0.615,0.615 -0.33965,0 -0.615,-0.27535 -0.615,-0.615 0,-0.33966 0.27535,-0.615 0.615,-0.615 0.33966,0 0.615,0.27534 0.615,0.615 z"
   style="fill:#e87506"
   sodipodi:ry="0.61500001"
   sodipodi:rx="0.61500001"
   sodipodi:cy="135.71201"
   sodipodi:cx="400.50201"
   id="circle1825"
   r="0.61500001"
   cy="135.71201"
   cx="400.50201" />
		<circle
   d="m 412.60501,144.62601 c 0,0.3402 -0.27579,0.616 -0.616,0.616 -0.3402,0 -0.616,-0.2758 -0.616,-0.616 0,-0.34021 0.2758,-0.616 0.616,-0.616 0.34021,0 0.616,0.27579 0.616,0.616 z"
   style="fill:#e87506"
   sodipodi:ry="0.616"
   sodipodi:rx="0.616"
   sodipodi:cy="144.62601"
   sodipodi:cx="411.98901"
   id="circle1827"
   r="0.616"
   cy="144.62601"
   cx="411.98901" />
		<circle
   d="m 417.84,145.145 c 0,0.34021 -0.27579,0.616 -0.616,0.616 -0.34021,0 -0.616,-0.27579 -0.616,-0.616 0,-0.3402 0.27579,-0.616 0.616,-0.616 0.34021,0 0.616,0.2758 0.616,0.616 z"
   style="fill:#e87506"
   sodipodi:ry="0.616"
   sodipodi:rx="0.616"
   sodipodi:cy="145.145"
   sodipodi:cx="417.224"
   id="circle1829"
   r="0.616"
   cy="145.145"
   cx="417.224" />
		<circle
   d="m 419.90201,155.864 c 0,0.34021 -0.27579,0.616 -0.616,0.616 -0.34021,0 -0.616,-0.27579 -0.616,-0.616 0,-0.34021 0.27579,-0.616 0.616,-0.616 0.34021,0 0.616,0.27579 0.616,0.616 z"
   style="fill:#e87506"
   sodipodi:ry="0.616"
   sodipodi:rx="0.616"
   sodipodi:cy="155.864"
   sodipodi:cx="419.28601"
   id="circle1831"
   r="0.616"
   cy="155.864"
   cx="419.28601" />
		<circle
   d="m 389.94001,139.33 c 0,0.51087 -0.41413,0.925 -0.925,0.925 -0.51086,0 -0.925,-0.41413 -0.925,-0.925 0,-0.51086 0.41414,-0.925 0.925,-0.925 0.51087,0 0.925,0.41414 0.925,0.925 z"
   style="fill:#e87506"
   sodipodi:ry="0.92500001"
   sodipodi:rx="0.92500001"
   sodipodi:cy="139.33"
   sodipodi:cx="389.01501"
   id="circle1833"
   r="0.92500001"
   cy="139.33"
   cx="389.01501" />
		<circle
   d="m 374.31099,154.127 c 0,0.51031 -0.41369,0.924 -0.924,0.924 -0.51031,0 -0.924,-0.41369 -0.924,-0.924 0,-0.51031 0.41369,-0.924 0.924,-0.924 0.51031,0 0.924,0.41369 0.924,0.924 z"
   style="fill:#e87506"
   sodipodi:ry="0.92400002"
   sodipodi:rx="0.92400002"
   sodipodi:cy="154.127"
   sodipodi:cx="373.38699"
   id="circle1835"
   r="0.92400002"
   cy="154.127"
   cx="373.38699" />
		<circle
   d="m 388.674,129.895 c 0,0.51032 -0.41369,0.924 -0.924,0.924 -0.51031,0 -0.924,-0.41368 -0.924,-0.924 0,-0.51031 0.41369,-0.924 0.924,-0.924 0.51031,0 0.924,0.41369 0.924,0.924 z"
   style="fill:#e87506"
   sodipodi:ry="0.92400002"
   sodipodi:rx="0.92400002"
   sodipodi:cy="129.895"
   sodipodi:cx="387.75"
   id="circle1837"
   r="0.92400002"
   cy="129.895"
   cx="387.75" />
		<circle
   d="m 382.07602,114.99 c 0,0.50976 -0.41325,0.923 -0.923,0.923 -0.50976,0 -0.923,-0.41324 -0.923,-0.923 0,-0.50976 0.41324,-0.923 0.923,-0.923 0.50975,0 0.923,0.41324 0.923,0.923 z"
   style="fill:#e87506"
   sodipodi:ry="0.92299998"
   sodipodi:rx="0.92299998"
   sodipodi:cy="114.99"
   sodipodi:cx="381.15302"
   id="circle1839"
   r="0.92299998"
   cy="114.99"
   cx="381.15302" />
		<circle
   d="m 422.68801,121.28 c 0,0.51031 -0.41369,0.924 -0.924,0.924 -0.51031,0 -0.924,-0.41369 -0.924,-0.924 0,-0.51031 0.41369,-0.924 0.924,-0.924 0.51031,0 0.924,0.41369 0.924,0.924 z"
   style="fill:#e87506"
   sodipodi:ry="0.92400002"
   sodipodi:rx="0.92400002"
   sodipodi:cy="121.28"
   sodipodi:cx="421.76401"
   id="circle1841"
   r="0.92400002"
   cy="121.28"
   cx="421.76401" />
		<circle
   d="m 372.64299,123.879 c 0,0.51031 -0.41368,0.924 -0.924,0.924 -0.51031,0 -0.924,-0.41369 -0.924,-0.924 0,-0.51031 0.41369,-0.924 0.924,-0.924 0.51032,0 0.924,0.41369 0.924,0.924 z"
   style="fill:#e87506"
   sodipodi:ry="0.92400002"
   sodipodi:rx="0.92400002"
   sodipodi:cy="123.879"
   sodipodi:cx="371.71899"
   id="circle1843"
   r="0.92400002"
   cy="123.879"
   cx="371.71899" />
		<circle
   d="m 362.16201,121.179 c 0,0.51031 -0.41369,0.924 -0.924,0.924 -0.51031,0 -0.924,-0.41369 -0.924,-0.924 0,-0.51031 0.41369,-0.924 0.924,-0.924 0.51031,0 0.924,0.41369 0.924,0.924 z"
   style="fill:#e87506"
   sodipodi:ry="0.92400002"
   sodipodi:rx="0.92400002"
   sodipodi:cy="121.179"
   sodipodi:cx="361.23801"
   id="circle1845"
   r="0.92400002"
   cy="121.179"
   cx="361.23801" />
		<circle
   d="m 363.154,125.54 c 0,0.51086 -0.41413,0.925 -0.925,0.925 -0.51086,0 -0.925,-0.41414 -0.925,-0.925 0,-0.51086 0.41414,-0.925 0.925,-0.925 0.51087,0 0.925,0.41414 0.925,0.925 z"
   style="fill:#e87506"
   sodipodi:ry="0.92500001"
   sodipodi:rx="0.92500001"
   sodipodi:cy="125.54"
   sodipodi:cx="362.229"
   id="circle1847"
   r="0.92500001"
   cy="125.54"
   cx="362.229" />
		<circle
   d="m 419.50801,108.906 c 0,0.33965 -0.27535,0.615 -0.615,0.615 -0.33966,0 -0.615,-0.27535 -0.615,-0.615 0,-0.33966 0.27534,-0.615 0.615,-0.615 0.33965,0 0.615,0.27534 0.615,0.615 z"
   style="fill:#e87506"
   sodipodi:ry="0.61500001"
   sodipodi:rx="0.61500001"
   sodipodi:cy="108.906"
   sodipodi:cx="418.89301"
   id="circle1849"
   r="0.61500001"
   cy="108.906"
   cx="418.89301" />
		<circle
   d="m 426.89401,112.665 c 0,0.34076 -0.27624,0.617 -0.617,0.617 -0.34076,0 -0.617,-0.27624 -0.617,-0.617 0,-0.34076 0.27624,-0.617 0.617,-0.617 0.34076,0 0.617,0.27624 0.617,0.617 z"
   style="fill:#e87506"
   sodipodi:ry="0.61699998"
   sodipodi:rx="0.61699998"
   sodipodi:cy="112.665"
   sodipodi:cx="426.27701"
   id="circle1851"
   r="0.61699998"
   cy="112.665"
   cx="426.27701" />
		<circle
   d="m 405.56201,107.196 c 0,0.34021 -0.27579,0.616 -0.616,0.616 -0.3402,0 -0.616,-0.27579 -0.616,-0.616 0,-0.34021 0.2758,-0.616 0.616,-0.616 0.34021,0 0.616,0.27579 0.616,0.616 z"
   style="fill:#e87506"
   sodipodi:ry="0.616"
   sodipodi:rx="0.616"
   sodipodi:cy="107.196"
   sodipodi:cx="404.94601"
   id="circle1853"
   r="0.616"
   cy="107.196"
   cx="404.94601" />
		<circle
   d="m 402.95301,96.934998 c 0,0.340207 -0.2758,0.616 -0.616,0.616 -0.34021,0 -0.616,-0.275793 -0.616,-0.616 0,-0.340208 0.27579,-0.616 0.616,-0.616 0.3402,0 0.616,0.275792 0.616,0.616 z"
   style="fill:#e87506"
   sodipodi:ry="0.616"
   sodipodi:rx="0.616"
   sodipodi:cy="96.934998"
   sodipodi:cx="402.33701"
   id="circle1855"
   r="0.616"
   cy="96.934998"
   cx="402.33701" />
		<circle
   d="m 400.50199,99.813004 c 0,0.339656 -0.27534,0.614996 -0.615,0.614996 -0.33965,0 -0.615,-0.27534 -0.615,-0.614996 0,-0.339656 0.27535,-0.615 0.615,-0.615 0.33966,0 0.615,0.275344 0.615,0.615 z"
   style="fill:#e87506"
   sodipodi:ry="0.61500001"
   sodipodi:rx="0.61500001"
   sodipodi:cy="99.813004"
   sodipodi:cx="399.88699"
   id="circle1857"
   r="0.61500001"
   cy="99.813004"
   cx="399.88699" />
		<circle
   d="m 411.98801,110.478 c 0,0.3402 -0.27579,0.616 -0.616,0.616 -0.34021,0 -0.616,-0.2758 -0.616,-0.616 0,-0.34021 0.27579,-0.616 0.616,-0.616 0.34021,0 0.616,0.27579 0.616,0.616 z"
   style="fill:#e87506"
   sodipodi:ry="0.616"
   sodipodi:rx="0.616"
   sodipodi:cy="110.478"
   sodipodi:cx="411.37201"
   id="circle1859"
   r="0.616"
   cy="110.478"
   cx="411.37201" />
		<circle
   d="m 376.84501,123.331 c 0,0.33966 -0.27534,0.615 -0.615,0.615 -0.33965,0 -0.615,-0.27534 -0.615,-0.615 0,-0.33965 0.27535,-0.615 0.615,-0.615 0.33966,0 0.615,0.27535 0.615,0.615 z"
   style="fill:#e87506"
   sodipodi:ry="0.61500001"
   sodipodi:rx="0.61500001"
   sodipodi:cy="123.331"
   sodipodi:cx="376.23001"
   id="circle1861"
   r="0.61500001"
   cy="123.331"
   cx="376.23001" />
		<circle
   d="m 374.24799,127.297 c 0,0.3402 -0.27579,0.616 -0.616,0.616 -0.34021,0 -0.616,-0.2758 -0.616,-0.616 0,-0.34021 0.27579,-0.616 0.616,-0.616 0.34021,0 0.616,0.27579 0.616,0.616 z"
   style="fill:#e87506"
   sodipodi:ry="0.616"
   sodipodi:rx="0.616"
   sodipodi:cy="127.297"
   sodipodi:cx="373.63199"
   id="circle1863"
   r="0.616"
   cy="127.297"
   cx="373.63199" />
		<circle
   d="m 379.582,134.134 c 0,0.34021 -0.27579,0.616 -0.616,0.616 -0.3402,0 -0.616,-0.27579 -0.616,-0.616 0,-0.3402 0.2758,-0.616 0.616,-0.616 0.34021,0 0.616,0.2758 0.616,0.616 z"
   style="fill:#e87506"
   sodipodi:ry="0.616"
   sodipodi:rx="0.616"
   sodipodi:cy="134.134"
   sodipodi:cx="378.966"
   id="circle1865"
   r="0.616"
   cy="134.134"
   cx="378.966" />
		<circle
   d="m 376.32401,154.399 c 0,0.33966 -0.27534,0.615 -0.615,0.615 -0.33965,0 -0.615,-0.27534 -0.615,-0.615 0,-0.33965 0.27535,-0.615 0.615,-0.615 0.33966,0 0.615,0.27535 0.615,0.615 z"
   style="fill:#e87506"
   sodipodi:ry="0.61500001"
   sodipodi:rx="0.61500001"
   sodipodi:cy="154.399"
   sodipodi:cx="375.70901"
   id="circle1867"
   r="0.61500001"
   cy="154.399"
   cx="375.70901" />
		<circle
   d="m 391.996,162.028 c 0,0.34021 -0.27579,0.616 -0.616,0.616 -0.3402,0 -0.616,-0.27579 -0.616,-0.616 0,-0.34021 0.2758,-0.616 0.616,-0.616 0.34021,0 0.616,0.27579 0.616,0.616 z"
   style="fill:#e87506"
   sodipodi:ry="0.616"
   sodipodi:rx="0.616"
   sodipodi:cy="162.028"
   sodipodi:cx="391.38"
   id="circle1869"
   r="0.616"
   cy="162.028"
   cx="391.38" />
		<circle
   d="m 398.45099,161.755 c 0,0.34021 -0.27579,0.616 -0.616,0.616 -0.34021,0 -0.616,-0.27579 -0.616,-0.616 0,-0.3402 0.27579,-0.616 0.616,-0.616 0.34021,0 0.616,0.2758 0.616,0.616 z"
   style="fill:#e87506"
   sodipodi:ry="0.616"
   sodipodi:rx="0.616"
   sodipodi:cy="161.755"
   sodipodi:cx="397.83499"
   id="circle1871"
   r="0.616"
   cy="161.755"
   cx="397.83499" />
		<circle
   d="m 406.719,160.11 c 0,0.34021 -0.2758,0.616 -0.616,0.616 -0.34021,0 -0.616,-0.27579 -0.616,-0.616 0,-0.34021 0.27579,-0.616 0.616,-0.616 0.3402,0 0.616,0.27579 0.616,0.616 z"
   style="fill:#e87506"
   sodipodi:ry="0.616"
   sodipodi:rx="0.616"
   sodipodi:cy="160.11"
   sodipodi:cx="406.103"
   id="circle1873"
   r="0.616"
   cy="160.11"
   cx="406.103" />
		<circle
   d="m 415.51499,162.604 c 0,0.34021 -0.2758,0.616 -0.616,0.616 -0.34021,0 -0.616,-0.27579 -0.616,-0.616 0,-0.3402 0.27579,-0.616 0.616,-0.616 0.3402,0 0.616,0.2758 0.616,0.616 z"
   style="fill:#e87506"
   sodipodi:ry="0.616"
   sodipodi:rx="0.616"
   sodipodi:cy="162.604"
   sodipodi:cx="414.89899"
   id="circle1875"
   r="0.616"
   cy="162.604"
   cx="414.89899" />
		<circle
   d="m 390.20701,175.15601 c 0,0.54455 -0.44145,0.986 -0.986,0.986 -0.54455,0 -0.986,-0.44145 -0.986,-0.986 0,-0.54456 0.44145,-0.986 0.986,-0.986 0.54455,0 0.986,0.44144 0.986,0.986 z"
   style="fill:#e87506"
   sodipodi:ry="0.986"
   sodipodi:rx="0.986"
   sodipodi:cy="175.15601"
   sodipodi:cx="389.22101"
   id="circle1877"
   r="0.986"
   cy="175.15601"
   cx="389.22101" />
		<circle
   d="m 389.795,171.737 c 0,0.544 -0.441,0.985 -0.985,0.985 -0.544,0 -0.985,-0.441 -0.985,-0.985 0,-0.544 0.441,-0.985 0.985,-0.985 0.544,0 0.985,0.441 0.985,0.985 z"
   style="fill:#e87506"
   sodipodi:ry="0.98500001"
   sodipodi:rx="0.98500001"
   sodipodi:cy="171.737"
   sodipodi:cx="388.81"
   id="circle1879"
   r="0.98500001"
   cy="171.737"
   cx="388.81" />
		<circle
   d="m 383.50601,152.866 c 0,0.69532 -0.56367,1.259 -1.259,1.259 -0.69533,0 -1.259,-0.56368 -1.259,-1.259 0,-0.69533 0.56367,-1.259 1.259,-1.259 0.69533,0 1.259,0.56367 1.259,1.259 z"
   style="fill:#e87506"
   sodipodi:ry="1.2589999"
   sodipodi:rx="1.2589999"
   sodipodi:cy="152.866"
   sodipodi:cx="382.24701"
   id="circle1881"
   r="1.2589999"
   cy="152.866"
   cx="382.24701" />
		<circle
   d="m 364.029,152.688 c 0,2.21356 -1.79445,4.008 -4.008,4.008 -2.21356,0 -4.008,-1.79444 -4.008,-4.008 0,-2.21355 1.79444,-4.008 4.008,-4.008 2.21355,0 4.008,1.79445 4.008,4.008 z"
   style="fill:#e87506"
   sodipodi:ry="4.0079999"
   sodipodi:rx="4.0079999"
   sodipodi:cy="152.688"
   sodipodi:cx="360.021"
   id="circle1883"
   r="4.0079999"
   cy="152.688"
   cx="360.021" />
		<circle
   d="m 360.26899,132.87199 c 0,2.43227 -1.97174,4.404 -4.404,4.404 -2.43226,0 -4.404,-1.97173 -4.404,-4.404 0,-2.43226 1.97174,-4.404 4.404,-4.404 2.43226,0 4.404,1.97174 4.404,4.404 z"
   style="fill:#e87506"
   sodipodi:ry="4.4039998"
   sodipodi:rx="4.4039998"
   sodipodi:cy="132.87199"
   sodipodi:cx="355.86499"
   id="circle1885"
   r="4.4039998"
   cy="132.87199"
   cx="355.86499" />
		<circle
   d="m 413.66799,161.96899 c 0,0.55781 -0.45219,1.01 -1.01,1.01 -0.55781,0 -1.01,-0.45219 -1.01,-1.01 0,-0.5578 0.45219,-1.01 1.01,-1.01 0.55781,0 1.01,0.4522 1.01,1.01 z"
   style="fill:#e87506"
   sodipodi:ry="1.01"
   sodipodi:rx="1.01"
   sodipodi:cy="161.96899"
   sodipodi:cx="412.65799"
   id="circle1887"
   r="1.01"
   cy="161.96899"
   cx="412.65799" />
		<circle
   d="m 425.74,146.679 c 0,0.84665 -0.68635,1.533 -1.533,1.533 -0.84665,0 -1.533,-0.68635 -1.533,-1.533 0,-0.84665 0.68635,-1.533 1.533,-1.533 0.84665,0 1.533,0.68635 1.533,1.533 z"
   style="fill:#e87506"
   sodipodi:ry="1.533"
   sodipodi:rx="1.533"
   sodipodi:cy="146.679"
   sodipodi:cx="424.207"
   id="circle1889"
   r="1.533"
   cy="146.679"
   cx="424.207" />
		<circle
   d="m 408.80401,139.838 c 0,0.61027 -0.49473,1.105 -1.105,1.105 -0.61028,0 -1.105,-0.49473 -1.105,-1.105 0,-0.61028 0.49472,-1.105 1.105,-1.105 0.61027,0 1.105,0.49472 1.105,1.105 z"
   style="fill:#e87506"
   sodipodi:ry="1.105"
   sodipodi:rx="1.105"
   sodipodi:cy="139.838"
   sodipodi:cx="407.69901"
   id="circle1891"
   r="1.105"
   cy="139.838"
   cx="407.69901" />
		<circle
   d="m 409.16599,165.384 c 0,0.54456 -0.44144,0.986 -0.986,0.986 -0.54455,0 -0.986,-0.44144 -0.986,-0.986 0,-0.54455 0.44145,-0.986 0.986,-0.986 0.54456,0 0.986,0.44145 0.986,0.986 z"
   style="fill:#e87506"
   sodipodi:ry="0.986"
   sodipodi:rx="0.986"
   sodipodi:cy="165.384"
   sodipodi:cx="408.17999"
   id="circle1893"
   r="0.986"
   cy="165.384"
   cx="408.17999" />
		<circle
   d="m 423.586,138.741 c 0,0.3402 -0.27579,0.616 -0.616,0.616 -0.34021,0 -0.616,-0.2758 -0.616,-0.616 0,-0.34021 0.27579,-0.616 0.616,-0.616 0.34021,0 0.616,0.27579 0.616,0.616 z"
   style="fill:#e87506"
   sodipodi:ry="0.616"
   sodipodi:rx="0.616"
   sodipodi:cy="138.741"
   sodipodi:cx="422.97"
   id="circle1895"
   r="0.616"
   cy="138.741"
   cx="422.97" />
		<circle
   d="m 424.21499,161.58501 c 0,0.51031 -0.41369,0.924 -0.924,0.924 -0.51032,0 -0.924,-0.41369 -0.924,-0.924 0,-0.51031 0.41368,-0.924 0.924,-0.924 0.51031,0 0.924,0.41369 0.924,0.924 z"
   style="fill:#e87506"
   sodipodi:ry="0.92400002"
   sodipodi:rx="0.92400002"
   sodipodi:cy="161.58501"
   sodipodi:cx="423.29099"
   id="circle1897"
   r="0.92400002"
   cy="161.58501"
   cx="423.29099" />
		<circle
   d="m 427.11301,148.354 c 0,0.34021 -0.27579,0.616 -0.616,0.616 -0.34021,0 -0.616,-0.27579 -0.616,-0.616 0,-0.3402 0.27579,-0.616 0.616,-0.616 0.34021,0 0.616,0.2758 0.616,0.616 z"
   style="fill:#e87506"
   sodipodi:ry="0.616"
   sodipodi:rx="0.616"
   sodipodi:cy="148.354"
   sodipodi:cx="426.49701"
   id="circle1899"
   r="0.616"
   cy="148.354"
   cx="426.49701" />
		<circle
   d="m 431.89999,148.901 c 0,0.34076 -0.27624,0.617 -0.617,0.617 -0.34076,0 -0.617,-0.27624 -0.617,-0.617 0,-0.34076 0.27624,-0.617 0.617,-0.617 0.34076,0 0.617,0.27624 0.617,0.617 z"
   style="fill:#e87506"
   sodipodi:ry="0.61699998"
   sodipodi:rx="0.61699998"
   sodipodi:cy="148.901"
   sodipodi:cx="431.28299"
   id="circle1901"
   r="0.61699998"
   cy="148.901"
   cx="431.28299" />
		<circle
   d="m 422.31199,148.862 c 0,0.54455 -0.44145,0.986 -0.986,0.986 -0.54455,0 -0.986,-0.44145 -0.986,-0.986 0,-0.54455 0.44145,-0.986 0.986,-0.986 0.54455,0 0.986,0.44145 0.986,0.986 z"
   style="fill:#e87506"
   sodipodi:ry="0.986"
   sodipodi:rx="0.986"
   sodipodi:cy="148.862"
   sodipodi:cx="421.32599"
   id="circle1903"
   r="0.986"
   cy="148.862"
   cx="421.32599" />
		<circle
   d="m 422.365,152.379 c 0,0.544 -0.44099,0.985 -0.985,0.985 -0.544,0 -0.985,-0.441 -0.985,-0.985 0,-0.544 0.441,-0.985 0.985,-0.985 0.54401,0 0.985,0.441 0.985,0.985 z"
   style="fill:#e87506"
   sodipodi:ry="0.98500001"
   sodipodi:rx="0.98500001"
   sodipodi:cy="152.379"
   sodipodi:cx="421.38"
   id="circle1905"
   r="0.98500001"
   cy="152.379"
   cx="421.38" />
		<circle
   d="m 408.79499,151.933 c 0,0.33965 -0.27534,0.615 -0.615,0.615 -0.33965,0 -0.615,-0.27535 -0.615,-0.615 0,-0.33966 0.27535,-0.615 0.615,-0.615 0.33966,0 0.615,0.27534 0.615,0.615 z"
   style="fill:#e87506"
   sodipodi:ry="0.61500001"
   sodipodi:rx="0.61500001"
   sodipodi:cy="151.933"
   sodipodi:cx="408.17999"
   id="circle1907"
   r="0.61500001"
   cy="151.933"
   cx="408.17999" />
		<circle
   d="m 417.295,155.711 c 0,0.45784 -0.37115,0.829 -0.829,0.829 -0.45784,0 -0.829,-0.37116 -0.829,-0.829 0,-0.45785 0.37116,-0.829 0.829,-0.829 0.45785,0 0.829,0.37115 0.829,0.829 z"
   style="fill:#e87506"
   sodipodi:ry="0.829"
   sodipodi:rx="0.829"
   sodipodi:cy="155.711"
   sodipodi:cx="416.466"
   id="circle1909"
   r="0.829"
   cy="155.711"
   cx="416.466" />
		<circle
   d="m 412.63599,150.23 c 0,0.54455 -0.44144,0.986 -0.986,0.986 -0.54455,0 -0.986,-0.44145 -0.986,-0.986 0,-0.54456 0.44145,-0.986 0.986,-0.986 0.54456,0 0.986,0.44144 0.986,0.986 z"
   style="fill:#e87506"
   sodipodi:ry="0.986"
   sodipodi:rx="0.986"
   sodipodi:cy="150.23"
   sodipodi:cx="411.64999"
   id="circle1911"
   r="0.986"
   cy="150.23"
   cx="411.64999" />
	</g>
</g><g
     transform="translate(0,-97.795505)"
     id="g1913">
	<path
   style="fill:#2b2c2c"
   id="path1915"
   d="m 455.948,117.838 c -0.375,0.182 -1.203,0.389 -2.265,0.389 -2.769,0 -4.451,-1.734 -4.451,-4.399 0,-2.873 2.006,-4.606 4.672,-4.606 1.048,0 1.785,0.22 2.109,0.388 l -0.337,1.269 c -0.414,-0.182 -0.996,-0.337 -1.708,-0.337 -1.772,0 -3.054,1.113 -3.054,3.209 0,1.928 1.112,3.145 3.041,3.145 0.634,0 1.307,-0.129 1.733,-0.311 l 0.26,1.253 z" />
	<path
   style="fill:#2b2c2c"
   id="path1917"
   d="m 463.026,114.875 c 0,2.316 -1.631,3.352 -3.235,3.352 -1.772,0 -3.157,-1.217 -3.157,-3.248 0,-2.07 1.358,-3.339 3.261,-3.339 1.876,0 3.131,1.32 3.131,3.235 z m -4.749,0.064 c 0,1.217 0.608,2.136 1.565,2.136 0.906,0 1.54,-0.881 1.54,-2.161 0,-0.983 -0.439,-2.122 -1.527,-2.122 -1.125,0 -1.578,1.1 -1.578,2.147 z" />
	<path
   style="fill:#2b2c2c"
   id="path1919"
   d="m 464.333,113.659 c 0,-0.725 -0.026,-1.333 -0.052,-1.877 h 1.358 l 0.077,0.932 h 0.039 c 0.298,-0.491 0.867,-1.074 1.941,-1.074 0.828,0 1.475,0.467 1.746,1.165 h 0.026 c 0.22,-0.35 0.479,-0.608 0.764,-0.789 0.362,-0.246 0.763,-0.376 1.294,-0.376 1.035,0 2.096,0.712 2.096,2.73 v 3.714 h -1.553 v -3.48 c 0,-1.048 -0.362,-1.669 -1.125,-1.669 -0.544,0 -0.945,0.388 -1.113,0.841 -0.052,0.142 -0.078,0.349 -0.078,0.53 v 3.778 H 468.2 v -3.649 c 0,-0.879 -0.349,-1.5 -1.086,-1.5 -0.596,0 -0.997,0.465 -1.152,0.893 -0.052,0.168 -0.077,0.35 -0.077,0.53 v 3.727 h -1.553 v -4.426 z" />
	<path
   style="fill:#2b2c2c"
   id="path1921"
   d="m 475.305,113.879 c 0,-0.828 -0.025,-1.501 -0.051,-2.097 h 1.396 l 0.078,0.971 h 0.025 c 0.467,-0.712 1.204,-1.113 2.161,-1.113 1.449,0 2.653,1.242 2.653,3.209 0,2.277 -1.437,3.378 -2.873,3.378 -0.789,0 -1.449,-0.337 -1.772,-0.841 h -0.026 v 3.26 h -1.592 v -6.767 z m 1.591,1.565 c 0,0.155 0.014,0.298 0.039,0.439 0.168,0.647 0.725,1.113 1.41,1.113 1.01,0 1.604,-0.841 1.604,-2.083 0,-1.113 -0.543,-2.019 -1.565,-2.019 -0.66,0 -1.268,0.479 -1.437,1.178 -0.025,0.129 -0.052,0.271 -0.052,0.4 v 0.972 z" />
	<path
   style="fill:#2b2c2c"
   id="path1923"
   d="m 488.516,116.194 c 0,0.751 0.026,1.372 0.053,1.89 h -1.385 l -0.078,-0.944 h -0.039 c -0.271,0.439 -0.893,1.087 -2.031,1.087 -1.138,0 -2.187,-0.687 -2.187,-2.743 v -3.701 h 1.592 v 3.43 c 0,1.048 0.336,1.721 1.177,1.721 0.647,0 1.062,-0.44 1.217,-0.854 0.064,-0.129 0.091,-0.311 0.091,-0.491 v -3.805 h 1.591 v 4.41 z" />
	<path
   style="fill:#2b2c2c"
   id="path1925"
   d="m 492.062,110.165 v 1.617 h 1.514 v 1.19 h -1.514 v 2.782 c 0,0.776 0.207,1.164 0.815,1.164 0.284,0 0.439,-0.013 0.621,-0.064 l 0.025,1.203 c -0.232,0.091 -0.66,0.169 -1.151,0.169 -0.596,0 -1.074,-0.194 -1.372,-0.518 -0.35,-0.362 -0.504,-0.944 -0.504,-1.772 v -2.964 h -0.894 v -1.19 h 0.894 v -1.178 l 1.566,-0.439 z" />
	<path
   style="fill:#2b2c2c"
   id="path1927"
   d="m 495.827,115.38 c 0.038,1.139 0.919,1.63 1.94,1.63 0.738,0 1.256,-0.116 1.747,-0.284 l 0.233,1.087 c -0.544,0.232 -1.295,0.401 -2.2,0.401 -2.044,0 -3.248,-1.256 -3.248,-3.184 0,-1.747 1.062,-3.391 3.08,-3.391 2.044,0 2.717,1.683 2.717,3.067 0,0.298 -0.025,0.53 -0.052,0.673 h -4.217 z m 2.769,-1.113 c 0.014,-0.582 -0.246,-1.539 -1.307,-1.539 -0.983,0 -1.397,0.893 -1.462,1.539 h 2.769 z" />
	<path
   style="fill:#2b2c2c"
   id="path1929"
   d="m 501.378,113.813 c 0,-0.854 -0.013,-1.475 -0.052,-2.031 h 1.371 l 0.064,1.19 h 0.039 c 0.311,-0.88 1.049,-1.333 1.734,-1.333 0.155,0 0.246,0.014 0.375,0.039 v 1.488 c -0.143,-0.025 -0.285,-0.039 -0.479,-0.039 -0.751,0 -1.281,0.479 -1.424,1.203 -0.025,0.143 -0.039,0.311 -0.039,0.479 v 3.273 h -1.591 v -4.269 z" />
	<path
   style="fill:#2b2c2c"
   id="path1931"
   d="m 456.686,131.484 c -0.556,0.207 -1.643,0.492 -2.795,0.492 -1.475,0 -2.601,-0.376 -3.429,-1.165 -0.776,-0.737 -1.216,-1.889 -1.216,-3.209 0.013,-2.769 1.967,-4.528 4.852,-4.528 1.074,0 1.916,0.22 2.316,0.414 l -0.35,1.28 c -0.479,-0.22 -1.061,-0.375 -1.979,-0.375 -1.863,0 -3.17,1.1 -3.17,3.132 0,1.979 1.216,3.157 3.028,3.157 0.582,0 0.996,-0.078 1.203,-0.168 v -2.188 h -1.54 v -1.255 h 3.079 v 4.413 z" />
	<path
   style="fill:#2b2c2c"
   id="path1933"
   d="m 458.29,127.616 c 0,-0.854 -0.013,-1.476 -0.052,-2.032 h 1.371 l 0.065,1.19 h 0.038 c 0.311,-0.88 1.049,-1.332 1.734,-1.332 0.155,0 0.246,0.013 0.375,0.038 v 1.488 c -0.143,-0.026 -0.284,-0.039 -0.479,-0.039 -0.75,0 -1.281,0.479 -1.424,1.204 -0.025,0.142 -0.038,0.311 -0.038,0.479 v 3.273 h -1.592 v -4.269 z" />
	<path
   style="fill:#2b2c2c"
   id="path1935"
   d="m 467.671,130.372 c 0,0.569 0.026,1.125 0.104,1.514 h -1.437 l -0.116,-0.699 h -0.038 c -0.376,0.492 -1.035,0.842 -1.863,0.842 -1.269,0 -1.98,-0.919 -1.98,-1.877 0,-1.578 1.41,-2.394 3.74,-2.381 v -0.104 c 0,-0.414 -0.169,-1.1 -1.281,-1.1 -0.621,0 -1.269,0.194 -1.695,0.466 l -0.311,-1.035 c 0.466,-0.284 1.281,-0.556 2.277,-0.556 2.019,0 2.601,1.28 2.601,2.665 v 2.265 z m -1.553,-1.566 c -1.126,-0.013 -2.199,0.221 -2.199,1.178 0,0.621 0.401,0.906 0.905,0.906 0.647,0 1.1,-0.414 1.256,-0.867 0.038,-0.116 0.038,-0.232 0.038,-0.35 v -0.867 z" />
	<path
   style="fill:#2b2c2c"
   id="path1937"
   d="m 469.354,127.681 c 0,-0.828 -0.026,-1.501 -0.053,-2.097 h 1.398 l 0.077,0.971 h 0.026 c 0.465,-0.712 1.203,-1.112 2.16,-1.112 1.449,0 2.652,1.242 2.652,3.209 0,2.277 -1.436,3.377 -2.872,3.377 -0.789,0 -1.449,-0.337 -1.772,-0.842 h -0.026 v 3.262 h -1.591 v -6.768 z m 1.59,1.565 c 0,0.155 0.013,0.298 0.039,0.44 0.168,0.646 0.725,1.112 1.41,1.112 1.01,0 1.604,-0.841 1.604,-2.083 0,-1.113 -0.543,-2.019 -1.565,-2.019 -0.66,0 -1.269,0.479 -1.437,1.177 -0.025,0.13 -0.052,0.272 -0.052,0.401 v 0.972 z" />
	<path
   style="fill:#2b2c2c"
   id="path1939"
   d="m 476.922,122.698 h 1.592 v 3.74 h 0.026 c 0.194,-0.298 0.466,-0.544 0.789,-0.712 0.323,-0.181 0.698,-0.284 1.1,-0.284 1.074,0 2.2,0.711 2.2,2.729 v 3.714 h -1.592 v -3.545 c 0,-0.906 -0.336,-1.605 -1.217,-1.605 -0.621,0 -1.061,0.414 -1.242,0.894 -0.051,0.142 -0.064,0.311 -0.064,0.479 v 3.778 h -1.592 v -9.188 z" />
	<path
   style="fill:#2b2c2c"
   id="path1941"
   d="m 486.019,123.824 c 0,0.466 -0.35,0.854 -0.905,0.854 -0.531,0 -0.881,-0.389 -0.881,-0.854 0,-0.491 0.363,-0.866 0.894,-0.866 0.542,0 0.879,0.375 0.892,0.866 z m -1.696,8.062 v -6.302 h 1.592 v 6.302 h -1.592 z" />
	<path
   style="fill:#2b2c2c"
   id="path1943"
   d="m 492.269,131.691 c -0.337,0.155 -0.997,0.323 -1.786,0.323 -1.967,0 -3.248,-1.268 -3.248,-3.222 0,-1.889 1.295,-3.351 3.507,-3.351 0.583,0 1.178,0.129 1.54,0.284 l -0.285,1.203 c -0.258,-0.129 -0.634,-0.245 -1.203,-0.245 -1.216,0 -1.94,0.893 -1.928,2.044 0,1.294 0.841,2.031 1.928,2.031 0.544,0 0.945,-0.116 1.256,-0.245 l 0.219,1.178 z" />
	<path
   style="fill:#2b2c2c"
   id="path1945"
   d="m 493.381,130.411 c 0.35,0.22 1.035,0.465 1.604,0.465 0.698,0 1.009,-0.297 1.009,-0.711 0,-0.428 -0.258,-0.635 -1.035,-0.919 -1.229,-0.414 -1.733,-1.087 -1.733,-1.837 0,-1.113 0.919,-1.967 2.381,-1.967 0.698,0 1.307,0.168 1.683,0.375 l -0.324,1.112 c -0.259,-0.155 -0.776,-0.362 -1.332,-0.362 -0.57,0 -0.881,0.285 -0.881,0.673 0,0.401 0.298,0.583 1.101,0.88 1.151,0.401 1.669,0.983 1.682,1.915 0,1.151 -0.893,1.979 -2.562,1.979 -0.764,0 -1.449,-0.181 -1.915,-0.439 l 0.322,-1.164 z" />
	<path
   style="fill:#2b2c2c"
   id="path1947"
   d="m 455.845,145.416 c -0.401,0.207 -1.242,0.414 -2.303,0.414 -2.459,0 -4.296,-1.553 -4.296,-4.426 0,-2.743 1.85,-4.58 4.555,-4.58 1.074,0 1.772,0.232 2.07,0.388 l -0.285,0.919 c -0.414,-0.207 -1.021,-0.362 -1.746,-0.362 -2.045,0 -3.403,1.307 -3.403,3.598 0,2.147 1.229,3.506 3.338,3.506 0.699,0 1.397,-0.143 1.851,-0.362 l 0.219,0.905 z" />
	<path
   style="fill:#2b2c2c"
   id="path1949"
   d="m 457.229,136.501 h 1.139 v 3.92 h 0.025 c 0.182,-0.323 0.466,-0.621 0.815,-0.814 0.336,-0.194 0.737,-0.311 1.164,-0.311 0.842,0 2.188,0.518 2.188,2.665 v 3.727 h -1.139 v -3.597 c 0,-1.01 -0.375,-1.851 -1.449,-1.851 -0.738,0 -1.307,0.518 -1.527,1.126 -0.064,0.168 -0.077,0.336 -0.077,0.543 v 3.778 h -1.139 v -9.186 z" />
	<path
   style="fill:#2b2c2c"
   id="path1951"
   d="m 468.81,144.187 c 0,0.543 0.026,1.074 0.091,1.501 h -1.022 l -0.091,-0.789 h -0.038 c -0.35,0.491 -1.022,0.932 -1.915,0.932 -1.269,0 -1.915,-0.894 -1.915,-1.799 0,-1.514 1.346,-2.342 3.765,-2.329 v -0.129 c 0,-0.505 -0.142,-1.449 -1.423,-1.437 -0.595,0 -1.203,0.168 -1.644,0.466 l -0.259,-0.764 c 0.518,-0.323 1.281,-0.543 2.07,-0.543 1.915,0 2.381,1.307 2.381,2.549 v 2.342 z m -1.1,-1.696 c -1.242,-0.025 -2.652,0.194 -2.652,1.41 0,0.751 0.491,1.088 1.061,1.088 0.828,0 1.358,-0.518 1.54,-1.049 0.039,-0.129 0.052,-0.259 0.052,-0.362 v -1.087 z" />
	<path
   style="fill:#2b2c2c"
   id="path1953"
   d="m 470.646,141.379 c 0,-0.737 -0.013,-1.372 -0.051,-1.954 h 0.996 l 0.052,1.242 h 0.038 c 0.285,-0.841 0.984,-1.371 1.747,-1.371 0.116,0 0.207,0.013 0.311,0.025 v 1.074 c -0.116,-0.026 -0.232,-0.026 -0.388,-0.026 -0.803,0 -1.372,0.596 -1.527,1.449 -0.025,0.155 -0.039,0.35 -0.039,0.53 v 3.339 h -1.139 v -4.308 z" />
	<path
   style="fill:#2b2c2c"
   id="path1955"
   d="m 474.93,136.501 h 1.139 v 9.187 h -1.139 v -9.187 z" />
	<path
   style="fill:#2b2c2c"
   id="path1957"
   d="m 478.617,142.763 c 0.026,1.54 0.996,2.174 2.148,2.174 0.814,0 1.319,-0.142 1.733,-0.323 l 0.207,0.815 c -0.401,0.182 -1.1,0.401 -2.096,0.401 -1.929,0 -3.08,-1.281 -3.08,-3.171 0,-1.889 1.113,-3.363 2.938,-3.363 2.058,0 2.588,1.785 2.588,2.937 0,0.233 -0.013,0.401 -0.039,0.53 h -4.399 z m 3.339,-0.815 c 0.013,-0.712 -0.298,-1.838 -1.579,-1.838 -1.164,0 -1.656,1.049 -1.746,1.838 h 3.325 z" />
	<path
   style="fill:#2b2c2c"
   id="path1959"
   d="m 484.311,144.536 c 0.35,0.207 0.944,0.439 1.514,0.439 0.815,0 1.203,-0.4 1.203,-0.932 0,-0.543 -0.323,-0.828 -1.151,-1.139 -1.139,-0.414 -1.669,-1.021 -1.669,-1.772 0,-1.009 0.828,-1.837 2.161,-1.837 0.634,0 1.19,0.168 1.526,0.388 l -0.271,0.828 c -0.246,-0.155 -0.699,-0.375 -1.281,-0.375 -0.673,0 -1.035,0.388 -1.035,0.854 0,0.518 0.362,0.751 1.178,1.074 1.074,0.401 1.644,0.944 1.644,1.876 0,1.113 -0.867,1.89 -2.329,1.89 -0.686,0 -1.32,-0.182 -1.76,-0.44 l 0.27,-0.854 z" />
	<path
   style="fill:#2b2c2c"
   id="path1961"
   d="m 450.889,150.769 v 5.176 c 0,1.94 0.867,2.769 2.032,2.769 1.28,0 2.122,-0.854 2.122,-2.769 v -5.176 h 1.139 v 5.098 c 0,2.679 -1.41,3.766 -3.3,3.766 -1.786,0 -3.132,-1.01 -3.132,-3.727 v -5.137 h 1.139 z" />
	<path
   style="fill:#2b2c2c"
   id="path1963"
   d="m 458.096,154.922 c 0,-0.66 -0.013,-1.178 -0.051,-1.695 h 1.009 l 0.064,1.035 h 0.026 c 0.311,-0.582 1.035,-1.165 2.07,-1.165 0.867,0 2.213,0.518 2.213,2.666 v 3.727 h -1.139 v -3.61 c 0,-1.009 -0.376,-1.851 -1.449,-1.851 -0.738,0 -1.32,0.531 -1.527,1.165 -0.052,0.143 -0.078,0.337 -0.078,0.53 v 3.766 h -1.139 v -4.568 z" />
	<path
   style="fill:#2b2c2c"
   id="path1965"
   d="m 466.545,151.467 c 0,0.388 -0.271,0.698 -0.725,0.698 -0.414,0 -0.686,-0.311 -0.686,-0.698 0,-0.387 0.285,-0.712 0.712,-0.712 0.415,0 0.699,0.31 0.699,0.712 z m -1.268,8.022 v -6.263 h 1.139 v 6.263 h -1.139 z" />
	<path
   style="fill:#2b2c2c"
   id="path1967"
   d="m 468.745,153.227 1.229,3.507 c 0.207,0.582 0.375,1.1 0.504,1.617 h 0.039 c 0.143,-0.518 0.323,-1.035 0.53,-1.617 l 1.217,-3.507 h 1.19 l -2.459,6.263 h -1.087 l -2.381,-6.263 h 1.218 z" />
	<path
   style="fill:#2b2c2c"
   id="path1969"
   d="m 475.033,156.565 c 0.025,1.539 0.996,2.174 2.148,2.174 0.814,0 1.319,-0.143 1.733,-0.324 l 0.207,0.815 c -0.401,0.181 -1.1,0.401 -2.097,0.401 -1.928,0 -3.079,-1.281 -3.079,-3.17 0,-1.89 1.112,-3.365 2.938,-3.365 2.058,0 2.588,1.786 2.588,2.938 0,0.233 -0.013,0.401 -0.039,0.531 h -4.399 z m 3.338,-0.815 c 0.014,-0.712 -0.297,-1.838 -1.578,-1.838 -1.164,0 -1.656,1.048 -1.747,1.838 h 3.325 z" />
	<path
   style="fill:#2b2c2c"
   id="path1971"
   d="m 480.882,155.181 c 0,-0.738 -0.013,-1.372 -0.052,-1.954 h 0.996 l 0.052,1.242 h 0.039 c 0.284,-0.841 0.983,-1.372 1.747,-1.372 0.116,0 0.207,0.014 0.311,0.026 v 1.074 c -0.117,-0.026 -0.233,-0.026 -0.389,-0.026 -0.803,0 -1.371,0.596 -1.527,1.449 -0.025,0.155 -0.038,0.35 -0.038,0.531 v 3.338 h -1.139 v -4.308 z" />
	<path
   style="fill:#2b2c2c"
   id="path1973"
   d="m 484.957,158.338 c 0.35,0.207 0.945,0.439 1.514,0.439 0.815,0 1.204,-0.401 1.204,-0.932 0,-0.543 -0.323,-0.828 -1.151,-1.139 -1.139,-0.414 -1.67,-1.022 -1.67,-1.772 0,-1.01 0.828,-1.838 2.161,-1.838 0.634,0 1.19,0.169 1.526,0.389 l -0.271,0.828 c -0.246,-0.155 -0.698,-0.375 -1.281,-0.375 -0.672,0 -1.035,0.388 -1.035,0.854 0,0.518 0.363,0.751 1.178,1.074 1.074,0.401 1.644,0.944 1.644,1.876 0,1.113 -0.867,1.89 -2.329,1.89 -0.686,0 -1.32,-0.182 -1.76,-0.44 l 0.27,-0.854 z" />
	<path
   style="fill:#2b2c2c"
   id="path1975"
   d="m 491.505,151.467 c 0,0.388 -0.272,0.698 -0.725,0.698 -0.414,0 -0.687,-0.311 -0.687,-0.698 0,-0.387 0.285,-0.712 0.712,-0.712 0.415,0 0.7,0.31 0.7,0.712 z m -1.269,8.022 v -6.263 h 1.139 v 6.263 h -1.139 z" />
	<path
   style="fill:#2b2c2c"
   id="path1977"
   d="m 494.636,151.726 v 1.501 h 1.63 v 0.867 h -1.63 v 3.377 c 0,0.776 0.22,1.216 0.854,1.216 0.311,0 0.491,-0.025 0.659,-0.077 l 0.052,0.867 c -0.22,0.077 -0.569,0.155 -1.009,0.155 -0.53,0 -0.958,-0.182 -1.229,-0.479 -0.311,-0.35 -0.439,-0.906 -0.439,-1.644 v -3.416 h -0.971 v -0.867 h 0.971 v -1.165 l 1.112,-0.335 z" />
	<path
   style="fill:#2b2c2c"
   id="path1979"
   d="m 498.077,153.227 1.358,3.7 c 0.156,0.414 0.311,0.906 0.414,1.281 h 0.026 c 0.116,-0.375 0.246,-0.854 0.401,-1.307 l 1.242,-3.675 h 1.203 l -1.708,4.464 c -0.815,2.148 -1.372,3.235 -2.147,3.921 -0.57,0.479 -1.113,0.673 -1.398,0.725 l -0.284,-0.944 c 0.284,-0.091 0.66,-0.271 0.996,-0.557 0.311,-0.246 0.687,-0.686 0.958,-1.268 0.052,-0.117 0.09,-0.207 0.09,-0.272 0,-0.064 -0.025,-0.155 -0.09,-0.298 l -2.304,-5.771 h 1.243 z" />
</g></g>



</svg>